<svg xmlns="http://www.w3.org/2000/svg" viewBox="0 0 24 24" xml:space="preserve" width="24" height="24">
    <path style="fill:#05365b" d="M0 2.017v11.458l1.703 1.084L6.89 6.391Z"/>
    <path style="fill:#008c61" d="M24 2.21v-.193l-6.89 4.374 5.187 8.168L24 13.475Z"/>
    <path style="fill:#e29d81" d="M19.548 16.223c1.471-.929 1.858-2.942.852-4.49l-1.239-1.935c-1.006-1.548-2.981-2.052-4.452-1.123l-4.413 2.787c-1.471.929-1.858 2.942-.852 4.49l1.239 1.935c1.006 1.548 2.981 2.052 4.452 1.123z"/>
    <path style="fill:#e29d81" d="M19.006 16.572c.542-.348.697-1.084.348-1.626s-1.084-.697-1.626-.348l-8.129 5.148c-.542.348-.697 1.084-.348 1.626s1.084.697 1.626.348z"/>
    <path style="fill:#d3856a" d="m9.484 15.952 1.239 1.935c1.006 1.548 2.981 2.052 4.452 1.123l4.413-2.787c1.471-.929 1.858-2.942.852-4.49l-1.239-1.935"/>
    <path style="fill:#e29d81" d="M13.974 14.675c.542-.348.697-1.084.348-1.626s-1.084-.697-1.626-.348l-8.129 5.187c-.542.348-.697 1.084-.348 1.626s1.084.697 1.626.348z"/>
    <path style="fill:#e29d81" d="M15.677 16.223c.542-.348.697-1.084.348-1.626s-1.084-.697-1.626-.348L6.27 19.436c-.542.348-.697 1.084-.348 1.626s1.084.697 1.626.348zm-1.742-4.219c.542-.348.697-1.084.348-1.626s-1.084-.697-1.626-.348l-8.129 5.187c-.542.348-.697 1.084-.348 1.626s1.084.697 1.626.348z"/>
    <path style="fill:#e29d81" d="M15.561 8.288s-4.568.658-4.955.774c-.348.116-1.432 2.748-.194 3.058 1.277.31 3.29-1.316 3.29-1.316z"/>
    <path transform="rotate(-32.45 403.498 222.116)" style="fill:#fff" d="M18.808 6.567h1.432v8.361h-1.432z"/>
    <path style="fill:#dfe2e5" d="m17.884 6.855-1.2.775 4.49 7.045"/>
    <path style="fill:#006d49" d="m24 2.017-6.89 4.374 5.187 8.168"/>
    <path style="fill:#f9bda0" d="m19.432 17.849-.735-.465c.426.039.89-.155 1.123-.542a1.183 1.183 0 0 0-.348-1.626l-5.419-3.445c.387-.813-.387-2.555-.658-2.671-.348-.116-4.529-.697-4.916-.774-1.316-.387-2.826.194-3.639 1.471l-1.239 1.935c-1.006 1.548-.619 3.561.852 4.49l.348.232c.039.039.116.116.194.155l8.129 5.187a1.183 1.183 0 0 0 1.626-.348c.194-.31.232-.658.116-.968l1.548 1.006a1.183 1.183 0 0 0 1.626-.348c.271-.387.232-.89 0-1.239l.077.039a1.183 1.183 0 0 0 1.626-.348c.426-.658.271-1.394-.31-1.742"/>
    <path style="fill:#ffe4c7" d="M13.51 21.333c-.232-.155-.31-.426-.155-.658l.155-.271c.155-.232.426-.31.658-.155s.31.426.155.658l-.155.271c-.116.232-.426.31-.658.155m5.032-1.897c-.232-.155-.31-.426-.155-.658l.155-.271c.155-.232.426-.31.658-.155s.31.426.155.658l-.155.271c-.116.232-.426.31-.658.155m-1.703 1.548c-.232-.155-.31-.426-.155-.658l.155-.271c.155-.232.426-.31.658-.155s.31.426.155.658l-.155.271c-.155.232-.426.31-.658.155m1.742-4.18c-.232-.155-.31-.426-.155-.658l.155-.271c.155-.232.426-.31.658-.155s.31.426.155.658l-.116.271c-.155.232-.465.271-.697.155"/>
    <path transform="rotate(212.446 92.286 222.465)" style="fill:#fff" d="M3.749 6.584h1.433v8.361H3.749z"/>
    <path style="fill:#dfe2e5" d="m6.116 6.855 1.2.775-4.49 7.045"/>
    <path style="fill:#00263d" d="m0 2.017 6.89 4.374-5.187 8.168"/>
    <path style="fill:#ffc114" d="M2.71 9.449c-.232.387-.735.465-1.084.232-.387-.232-.465-.735-.232-1.084.232-.387.735-.465 1.084-.232s.465.735.232 1.084"/>
    <path style="fill:#e8ab92" d="m19.471 15.178-5.419-3.445c.387-.813-.387-2.555-.658-2.671-.155-.077-1.239-.232-2.361-.387l-1.239 3.871 10.181 3.252a1.1 1.1 0 0 0-.503-.619"/>
    <path style="fill:#e29d81" d="M14.323 9.333c.348.581.503 2.09.039 2.361l-3.91.852c-.465.271-1.084 0-1.432-.542-.348-.581-.232-1.239.232-1.51l2.787-1.626c.465-.271 1.897-.194 2.245.348z"/>
</svg>