<svg width="24" height="24" viewBox="0 0 0.45 0.45" fill="none" xmlns="http://www.w3.org/2000/svg">
    <path fill-rule="evenodd" clip-rule="evenodd" d="M0.225 0.054a0.171 0.171 0 1 0 0 0.342 0.171 0.171 0 0 0 0 -0.342M0.027 0.225a0.198 0.198 0 1 1 0.396 0 0.198 0.198 0 0 1 -0.396 0" fill="#000"/>
    <path fill-rule="evenodd" clip-rule="evenodd" d="M0.405 0.237h-0.36v-0.024h0.36z" fill="#000"/>
    <path fill-rule="evenodd" clip-rule="evenodd" d="M0.213 0.405v-0.36h0.024v0.36zm0.098 -0.18c0 -0.065 -0.023 -0.13 -0.069 -0.172l0.014 -0.015c0.051 0.047 0.076 0.118 0.076 0.188s-0.025 0.14 -0.076 0.188l-0.014 -0.015c0.046 -0.043 0.069 -0.107 0.069 -0.172M0.12 0.225c0 -0.07 0.024 -0.14 0.074 -0.188l0.015 0.015C0.164 0.095 0.141 0.16 0.141 0.225s0.023 0.13 0.067 0.172l-0.015 0.015C0.144 0.365 0.12 0.295 0.12 0.225" fill="#000"/>
    <path fill-rule="evenodd" clip-rule="evenodd" d="M0.225 0.119c0.065 0 0.131 0.012 0.176 0.037a0.01 0.01 0 1 1 -0.01 0.018c-0.041 -0.023 -0.103 -0.034 -0.166 -0.034s-0.125 0.012 -0.166 0.034a0.01 0.01 0 1 1 -0.01 -0.018c0.045 -0.025 0.111 -0.037 0.176 -0.037m0 0.207c0.065 0 0.131 -0.012 0.176 -0.037a0.01 0.01 0 1 0 -0.01 -0.018c-0.041 0.023 -0.103 0.034 -0.166 0.034s-0.125 -0.012 -0.166 -0.034a0.01 0.01 0 1 0 -0.01 0.018c0.045 0.025 0.111 0.037 0.176 0.037" fill="#000"/>
</svg>
