<svg width="24" height="24" viewBox="0 0 0.72 0.72" fill="none" xmlns="http://www.w3.org/2000/svg">
    <path d="M.09.15A.06.06 0 0 1 .15.09h.12a.06.06 0 0 1 .06.06v.12a.06.06 0 0 1-.06.06H.15A.06.06 0 0 1 .09.27zm.18 0H.15v.12h.12zm.12 0A.06.06 0 0 1 .45.09h.12a.06.06 0 0 1 .06.06v.12a.06.06 0 0 1-.06.06H.45A.06.06 0 0 1 .39.27zm.18 0H.45v.12h.12zm-.48.3A.06.06 0 0 1 .15.39h.12a.06.06 0 0 1 .06.06v.12a.06.06 0 0 1-.06.06H.15A.06.06 0 0 1 .09.57zm.18 0H.15v.12h.12zm.12 0A.06.06 0 0 1 .45.39h.12a.06.06 0 0 1 .06.06v.12a.06.06 0 0 1-.06.06H.45A.06.06 0 0 1 .39.57zm.18 0H.45v.12h.12z" fill="#0d0d0d"/>
</svg>
