<svg width="24" height="24" viewBox="0 0 3.84 3.84" xmlns="http://www.w3.org/2000/svg" aria-hidden="true" class="iconify iconify--noto">
    <path d="M.224 3.698c.068.074.349-.055.57-.158.166-.077.83-.349 1.16-.491.089-.038.219-.088.312-.211.083-.109.302-.573-.14-1.043-.449-.477-.911-.345-1.084-.223-.102.072-.184.234-.222.317-.157.349-.381.987-.472 1.238-.067.185-.191.497-.124.57" fill="#ffc107"/>
    <path d="M.775 1.995a2.2 2.2 0 0 0 .149.608.75.75 0 0 0 .375.403c.237.128.398.152.398.152l-.193.079s-.117-.024-.277-.103a.9.9 0 0 1-.426-.45 1.4 1.4 0 0 1-.096-.295c-.021-.103-.024-.161-.024-.161zm-.237.608s.024.195.185.44c.188.287.452.335.452.335L1 3.45s-.195-.06-.381-.313a.9.9 0 0 1-.148-.347zm-.166.461s.044.168.14.293c.114.15.26.193.26.193l-.134.059s-.102-.021-.213-.162c-.085-.107-.109-.23-.109-.23z" fill="#ff8f00"/>
    <path d="M.299 3.491a.05.05 0 0 1 0-.042l.764-1.585.126.472-.804 1.161a.05.05 0 0 1-.086-.007" fill="#fffde7" opacity=".44"/>
    <path d="M1.249 2.496c.357.418.763.365.899.26.136-.106.243-.47-.113-.881-.373-.43-.794-.307-.892-.214s-.222.452.106.835" fill="url(#a)"/>
    <path d="M2.476 2.668c-.13-.109-.2-.09-.292-.051a.78.78 0 0 1-.565 0l.077-.186a.4.4 0 0 0 .357-.03c.122-.072.29-.171.55.048.109.091.22.152.301.124.059-.02.091-.108.107-.179.002-.006.004-.024.006-.04.014-.11.038-.348.215-.469.189-.13.388-.13.388-.13l.036.358a.3.3 0 0 0-.209.035c-.202.112-.026.544-.341.69-.303.141-.55-.102-.631-.17" fill="#03a9f4"/>
    <path d="m1.362 2.212-.13-.117c.239-.267.176-.463.13-.606q-.014-.043-.024-.082a.8.8 0 0 1-.018-.243C1.228 1.05 1.188.93 1.185.922c-.056-.169-.014-.334.082-.488.195-.314.548-.314.548-.314l.118.315c-.089-.004-.383.001-.472.143-.114.179-.039.289-.034.302a1 1 0 0 1 .064-.069c.144-.128.268-.146.348-.139.089.008.17.053.228.127a.35.35 0 0 1 .069.282.33.33 0 0 1-.175.222.47.47 0 0 1-.389.045l.002.007q.005.023.018.06c.053.164.152.425-.229.796m.22-1.126a.3.3 0 0 0 .055.031q.094.038.21-.025c.046-.025.051-.051.053-.06a.1.1 0 0 0-.023-.084.1.1 0 0 0-.061-.036C1.772.907 1.711.936 1.65.99a.3.3 0 0 0-.067.095" fill="#f44336"/>
    <path d="m1.883 2.26-.186-.005s.088-.5.375-.584c.054-.016.112-.032.172-.04a1 1 0 0 0 .118-.024.4.4 0 0 0-.036-.175c-.017-.053-.035-.107-.045-.166a.31.31 0 0 1 .087-.289c.091-.085.238-.113.405-.075a.7.7 0 0 1 .226.109c.088.058.139.088.247.016.13-.088-.04-.43-.13-.628l.337-.14c.045.099.264.608.12.899a.34.34 0 0 1-.242.187c-.239.053-.379-.04-.481-.107a.5.5 0 0 0-.136-.07c-.319-.091.126.378-.082.589-.125.126-.431.16-.451.164-.197.047-.296.34-.296.34" fill="#f48fb1"/>
    <path d="M1.32 1.164a.6.6 0 0 0 .009.191c.082.061.262.061.262.061l-.018-.06-.002-.007a.7.7 0 0 1-.252-.185" fill="#c92b27"/>
    <path fill="#ffc107" d="m.946 1.459-.31-.152.154-.223.243.161z"/>
    <path d="M.489 1.038C.331 1.017.169.882.152.867L.308.684C.355.724.455.791.522.8z" fill="#fb8c00"/>
    <path d="M.768.638.54.563A.5.5 0 0 0 .559.314L.796.276a.8.8 0 0 1-.028.362" fill="#03a9f4"/>
    <path fill="#fb8c00" d="m2.192.46.234-.051.068.309-.234.051z"/>
    <path d="M2.774.533 2.609.359a.4.4 0 0 0 .106-.19l.237.039a.6.6 0 0 1-.178.326" fill="#ffc107"/>
    <path fill="#fb8c00" d="m2.865 1.457.21-.065.072.229-.21.065z"/>
    <path d="m2.926 3.391-.238-.028c.01-.085-.053-.189-.07-.212l.192-.144c.014.019.14.192.117.384" fill="#f44336"/>
    <path d="M3.611 3.087a1.6 1.6 0 0 0-.272-.016l-.008-.24q.159-.006.316.018z" fill="#fb8c00"/>
    <path fill="#f48fb1" d="m3.288 3.417.169-.171.232.229-.169.171z"/>
    <path fill="#f44336" d="m2.793 1.9.173.198-.198.173-.173-.198z"/>
</svg>
