<svg xmlns="http://www.w3.org/2000/svg" xmlns:xlink="http://www.w3.org/1999/xlink" width="2000" zoomAndPan="magnify" viewBox="0 0 1500 749.999995" height="1000" preserveAspectRatio="xMidYMid meet" version="1.0"><path fill="#563d7c" d="M 72.019531 138.839844 C 61.609375 140.140625 53.472656 142.742188 44.035156 147.300781 C 28.738281 155.109375 17.023438 166.824219 9.214844 182.121094 C 5.308594 189.929688 3.355469 194.8125 1.730469 202.945312 C 0.429688 208.480469 0.429688 216.941406 0.429688 378.675781 C 0.429688 540.410156 0.429688 548.871094 1.730469 554.402344 C 3.355469 562.539062 5.308594 567.417969 9.214844 575.230469 C 17.023438 590.523438 28.738281 602.238281 44.035156 610.050781 C 51.84375 613.953125 56.726562 615.90625 64.863281 617.535156 C 70.394531 618.835938 78.855469 618.835938 240.589844 618.835938 C 402.324219 618.835938 410.785156 618.835938 416.316406 617.535156 C 424.453125 615.90625 429.335938 613.953125 437.144531 610.050781 C 452.4375 602.238281 464.15625 590.523438 471.964844 575.230469 C 475.871094 567.417969 477.820312 562.539062 479.449219 554.402344 C 480.75 548.871094 480.75 540.410156 480.75 378.675781 C 480.75 216.941406 480.75 208.480469 479.449219 202.945312 C 477.820312 194.8125 475.871094 189.929688 471.964844 182.121094 C 460.898438 160.640625 441.699219 145.996094 417.292969 139.816406 C 412.414062 138.511719 403.625 138.511719 243.191406 138.511719 C 150.121094 138.511719 73.324219 138.839844 72.019531 138.839844 Z M 288.425781 244.273438 C 320.96875 250.457031 340.167969 265.101562 347.328125 289.507812 C 350.90625 301.875 351.234375 319.121094 347.980469 330.835938 C 346.675781 336.042969 342.445312 344.832031 339.519531 349.0625 C 333.984375 356.871094 324.546875 364.679688 314.785156 369.5625 C 312.507812 370.863281 310.554688 371.839844 310.554688 372.164062 C 310.554688 372.492188 312.183594 373.140625 314.136719 373.46875 C 316.085938 373.792969 319.992188 375.09375 322.921875 376.394531 C 348.304688 386.484375 362.949219 410.890625 362.949219 444.410156 C 362.949219 463.933594 356.765625 481.507812 345.375 493.546875 C 332.359375 507.542969 314.460938 516.003906 288.101562 520.882812 C 282.242188 521.859375 273.78125 522.183594 206.421875 522.183594 L 130.921875 522.511719 L 130.921875 242.324219 L 207.070312 242.648438 C 272.480469 243.296875 283.546875 243.296875 288.425781 244.273438 Z M 180.0625 321.398438 L 180.0625 360.125 L 224.96875 359.800781 C 264.34375 359.472656 270.203125 359.472656 273.457031 358.496094 C 284.195312 355.242188 293.308594 348.410156 297.214844 339.949219 C 300.140625 333.765625 301.117188 329.535156 301.117188 320.421875 C 301.117188 303.175781 295.910156 293.089844 284.523438 287.554688 C 274.757812 283 274.757812 283 225.292969 282.675781 L 180.0625 282.347656 Z M 180.0625 439.203125 L 180.0625 483.132812 L 228.875 482.808594 C 276.710938 482.484375 278.011719 482.484375 283.21875 481.183594 C 291.03125 478.902344 296.5625 475.976562 301.769531 470.441406 C 310.230469 462.308594 313.160156 453.195312 313.160156 438.878906 C 313.160156 424.558594 309.578125 415.445312 301.445312 407.3125 C 295.910156 402.105469 290.703125 399.5 282.242188 397.222656 C 276.710938 395.921875 275.085938 395.597656 228.222656 395.597656 L 180.0625 395.269531 Z M 180.0625 439.203125 " fill-opacity="1" fill-rule="nonzero"/><path fill="#563d7c" d="M 587.257812 306.746094 C 587.933594 306.519531 588.609375 306.292969 589.285156 306.292969 C 614.523438 306.292969 639.535156 306.292969 664.773438 306.746094 C 673.339844 306.96875 681.226562 309.898438 688.210938 315.082031 C 704.210938 326.800781 705.789062 359.925781 683.703125 371.871094 C 682.578125 372.546875 681.449219 372.996094 679.875 373.898438 C 684.15625 375.925781 688.210938 377.277344 691.589844 379.53125 C 704.886719 388.546875 710.296875 408.601562 704.210938 426.179688 C 699.027344 441.5 686.632812 448.035156 672.4375 451.417969 C 667.703125 452.542969 662.746094 452.992188 658.015625 453.21875 C 634.578125 453.445312 610.917969 453.21875 587.257812 453.21875 C 587.257812 404.542969 587.257812 355.644531 587.257812 306.746094 Z M 612.269531 431.8125 C 629.847656 431.8125 646.746094 432.261719 663.648438 431.585938 C 674.238281 431.136719 681.902344 419.644531 681.449219 408.375 C 680.773438 397.109375 674.015625 387.644531 663.648438 387.191406 C 646.746094 386.292969 630.070312 386.515625 613.171875 386.515625 C 612.945312 386.515625 612.71875 386.96875 612.269531 387.191406 Z M 612.496094 367.363281 C 628.042969 367.363281 643.140625 368.039062 658.242188 367.136719 C 669.28125 366.460938 675.59375 357.671875 675.140625 345.277344 C 674.691406 334.460938 668.378906 327.925781 657.113281 327.476562 C 642.917969 327.027344 628.71875 327.25 614.296875 327.25 C 613.621094 327.25 613.171875 327.476562 612.496094 327.703125 Z M 1391.289062 347.308594 L 1412.246094 347.308594 L 1412.246094 358.800781 C 1414.5 356.996094 1417.429688 354.96875 1420.132812 352.714844 C 1436.132812 338.742188 1474.214844 340.320312 1487.285156 368.714844 C 1498.550781 393.050781 1498.101562 417.613281 1482.777344 440.148438 C 1474.441406 452.769531 1461.371094 457.277344 1446.722656 456.375 C 1433.878906 455.699219 1422.609375 451.640625 1413.824219 439.472656 L 1413.824219 492.878906 L 1391.289062 492.878906 C 1391.289062 444.207031 1391.289062 395.757812 1391.289062 347.308594 Z M 1412.46875 400.9375 C 1413.371094 406.347656 1413.824219 411.753906 1415.398438 416.9375 C 1418.554688 428.429688 1428.46875 436.996094 1438.835938 437.894531 C 1452.582031 438.796875 1462.496094 433.613281 1467.453125 421.21875 C 1473.765625 405.445312 1473.539062 389.445312 1464.300781 374.800781 C 1453.484375 357.449219 1427.34375 358.800781 1418.105469 377.050781 C 1414.273438 384.488281 1412.46875 392.375 1412.46875 400.9375 Z M 1376.414062 438.121094 C 1376.414062 442.402344 1376.640625 446.910156 1376.414062 451.417969 C 1376.414062 452.542969 1375.0625 454.347656 1374.160156 454.347656 C 1367.625 454.796875 1361.089844 455.921875 1354.554688 455.246094 C 1348.921875 454.570312 1345.769531 449.613281 1343.964844 443.980469 C 1330.445312 455.246094 1314.894531 457.5 1298.445312 455.472656 C 1284.699219 453.667969 1273.207031 442.175781 1272.304688 429.332031 C 1270.953125 411.753906 1277.488281 400.261719 1293.039062 395.980469 C 1303.855469 393.050781 1315.347656 391.925781 1326.386719 389.898438 C 1329.09375 389.445312 1331.796875 388.996094 1334.5 388.320312 C 1339.683594 386.96875 1343.289062 384.039062 1343.515625 378.179688 C 1343.964844 372.09375 1341.488281 367.363281 1336.078125 365.109375 C 1326.613281 361.277344 1316.699219 361.277344 1307.234375 365.785156 C 1302.953125 367.8125 1300.472656 371.871094 1298.21875 379.082031 L 1276.136719 379.082031 C 1276.136719 370.515625 1279.066406 363.304688 1284.699219 357.222656 C 1292.136719 349.109375 1301.824219 345.953125 1312.191406 345.054688 C 1323.007812 343.925781 1333.824219 343.925781 1344.417969 347.53125 C 1358.613281 352.488281 1365.375 361.953125 1365.375 377.277344 C 1365.375 393.503906 1365.375 409.726562 1365.375 425.953125 C 1365.148438 437.21875 1365.148438 437.21875 1376.414062 438.121094 Z M 1342.164062 401.613281 C 1335.175781 402.742188 1328.867188 403.867188 1322.558594 405.222656 C 1316.023438 406.574219 1309.261719 407.925781 1302.953125 410.179688 C 1296.867188 412.433594 1294.613281 418.289062 1294.839844 424.601562 C 1295.066406 430.683594 1299.121094 434.066406 1304.304688 435.867188 C 1313.320312 439.023438 1322.332031 438.570312 1330.671875 434.515625 C 1336.753906 431.585938 1341.488281 426.855469 1341.9375 419.644531 C 1342.613281 413.558594 1342.164062 407.472656 1342.164062 401.613281 Z M 774.066406 344.152344 C 808.769531 343.703125 829.050781 369.617188 826.796875 404.769531 C 826.121094 416.9375 822.742188 428.429688 814.855469 438.121094 C 806.292969 448.488281 795.476562 454.121094 782.179688 455.472656 C 771.136719 456.824219 760.546875 455.921875 750.40625 451.191406 C 735.308594 444.207031 726.519531 432.035156 722.914062 415.585938 C 720.433594 404.320312 720.433594 393.277344 723.363281 382.234375 C 729.675781 358.125 748.152344 344.378906 774.066406 344.152344 Z M 743.871094 400.488281 C 744.773438 405.671875 745.222656 410.855469 746.574219 416.039062 C 750.179688 428.882812 760.097656 437.21875 771.363281 437.894531 C 785.335938 438.570312 795.023438 432.488281 800.433594 419.417969 C 805.617188 406.347656 805.617188 393.277344 799.980469 380.433594 C 791.644531 361.503906 769.335938 356.546875 754.914062 370.742188 C 746.574219 378.40625 744.546875 388.996094 743.871094 400.488281 Z M 894.175781 344.152344 C 925.5 344.152344 946.683594 365.558594 947.132812 397.558594 C 947.359375 411.078125 945.105469 423.925781 937.441406 435.191406 C 926.402344 451.417969 910.402344 457.050781 891.921875 456.148438 C 885.164062 455.921875 877.953125 454.347656 871.640625 451.640625 C 856.769531 445.78125 847.753906 433.839844 843.925781 418.289062 C 840.542969 404.542969 840.769531 390.796875 845.277344 377.277344 C 851.8125 356.546875 870.515625 344.152344 894.175781 344.152344 Z M 924.148438 397.558594 C 923.695312 394.628906 923.246094 389.222656 921.667969 384.039062 C 917.835938 370.96875 907.695312 362.855469 895.078125 362.40625 C 883.132812 361.953125 872.316406 368.941406 867.8125 381.558594 C 862.402344 396.433594 862.855469 411.078125 870.964844 424.824219 C 879.527344 439.246094 898.910156 442.402344 911.753906 431.585938 C 921.445312 423.472656 923.695312 412.207031 924.148438 397.558594 Z M 1117.269531 376.828125 C 1110.058594 376.828125 1103.296875 376.828125 1096.3125 376.828125 C 1095.410156 376.828125 1094.058594 375.925781 1093.832031 375.25 C 1090 364.207031 1080.761719 362.855469 1071.296875 362.855469 C 1067.46875 362.855469 1063.183594 363.757812 1059.578125 365.335938 C 1051.691406 368.714844 1051.015625 377.730469 1058.226562 382.011719 C 1063.183594 384.941406 1069.269531 386.515625 1074.902344 388.320312 C 1083.015625 390.574219 1091.351562 392.152344 1099.464844 394.402344 C 1119.972656 400.714844 1128.085938 421.671875 1116.59375 439.023438 C 1111.183594 447.359375 1102.847656 451.867188 1093.382812 454.121094 C 1079.410156 457.5 1065.4375 457.726562 1051.917969 452.769531 C 1037.269531 447.359375 1029.609375 436.542969 1028.480469 420.320312 L 1050.792969 420.320312 C 1057.101562 437.21875 1075.128906 443.753906 1091.804688 435.191406 C 1095.636719 433.164062 1098.339844 430.460938 1098.566406 425.726562 C 1098.789062 420.769531 1096.988281 416.488281 1092.480469 414.683594 C 1084.59375 411.753906 1076.480469 409.726562 1068.367188 407.25 C 1061.609375 405.222656 1054.847656 403.867188 1048.539062 401.164062 C 1036.144531 396.207031 1030.734375 387.644531 1030.734375 374.347656 C 1030.734375 362.855469 1037.269531 353.167969 1048.988281 348.882812 C 1064.988281 343.027344 1081.4375 342.125 1097.4375 348.660156 C 1108.253906 352.941406 1114.789062 361.503906 1117.492188 372.996094 C 1117.492188 373.898438 1117.269531 375.023438 1117.269531 376.828125 Z M 996.257812 346.855469 L 1016.988281 346.855469 L 1016.988281 363.984375 L 996.707031 363.984375 C 996.484375 366.011719 996.484375 367.589844 996.484375 368.941406 C 996.484375 386.292969 996.484375 403.644531 996.484375 420.996094 C 996.484375 423.25 996.707031 425.726562 996.933594 427.980469 C 997.382812 432.488281 999.863281 435.191406 1004.371094 435.640625 C 1008.425781 435.867188 1012.707031 435.640625 1017.214844 435.640625 L 1017.214844 452.769531 C 1007.75 455.246094 998.285156 455.023438 989.046875 452.992188 C 978.230469 450.515625 973.949219 442.851562 973.722656 428.65625 C 973.5 409.050781 973.722656 389.671875 973.722656 370.066406 L 973.722656 364.433594 L 956.597656 364.433594 L 956.597656 347.082031 L 973.5 347.082031 L 973.5 315.308594 L 996.707031 315.308594 C 996.257812 325.675781 996.257812 336.039062 996.257812 346.855469 Z M 1189.152344 453.667969 C 1180.363281 453.667969 1171.800781 453.894531 1163.464844 453.667969 C 1155.351562 453.21875 1149.042969 447.8125 1147.238281 439.699219 C 1146.335938 434.964844 1145.660156 430.234375 1145.660156 425.5 C 1145.4375 407.25 1145.660156 388.769531 1145.660156 370.515625 L 1145.660156 364.660156 L 1128.535156 364.660156 L 1128.535156 347.53125 L 1145.4375 347.53125 L 1145.4375 315.535156 L 1168.648438 315.535156 L 1168.648438 347.082031 L 1189.152344 347.082031 L 1189.152344 364.433594 L 1169.546875 364.433594 C 1169.324219 366.011719 1169.097656 367.136719 1169.097656 368.039062 C 1169.097656 386.742188 1169.097656 405.445312 1169.097656 424.148438 C 1169.097656 434.066406 1171.800781 436.316406 1181.265625 436.316406 C 1183.746094 436.316406 1186.449219 436.316406 1189.378906 436.316406 Z M 1227.6875 347.308594 L 1227.6875 365.335938 C 1236.476562 350.011719 1248.871094 341.898438 1267.121094 344.601562 L 1267.121094 366.910156 C 1258.558594 365.558594 1250.222656 365.335938 1242.785156 370.742188 C 1233.09375 377.730469 1229.714844 388.320312 1229.488281 399.585938 C 1229.039062 417.164062 1229.488281 434.964844 1229.488281 452.992188 L 1206.730469 452.992188 L 1206.730469 347.082031 C 1213.492188 347.308594 1220.25 347.308594 1227.6875 347.308594 Z M 1227.6875 347.308594 " fill-opacity="1" fill-rule="nonzero"/></svg>