<svg xmlns="http://www.w3.org/2000/svg" xmlns:xlink="http://www.w3.org/1999/xlink" width="2000" zoomAndPan="magnify" viewBox="0 0 1500 749.999995" height="1000" preserveAspectRatio="xMidYMid meet" version="1.0"><path fill="#000000" d="M 199.101562 607.707031 C 173.957031 587.921875 147.136719 568.949219 128.804688 542.242188 C 90.234375 495.136719 60.539062 440.605469 40.238281 383.292969 C 27.96875 346.027344 23.765625 306.074219 7.945312 270.246094 C -8.601562 244.226562 10.78125 215.78125 39.277344 207.511719 C 51.960938 205.078125 74.265625 193.109375 47.34375 201.660156 C 23.207031 219.378906 20.867188 185.582031 45.617188 183.441406 C 62.511719 181.195312 68.730469 167.363281 62.949219 154.910156 C 44.820312 143.078125 106.925781 130.082031 75.675781 112.429688 C 43.125 77.300781 121.210938 70.535156 101.941406 110.433594 C 97.332031 141.113281 156.507812 104.808594 142.777344 140.242188 C 156.726562 157.253906 195.03125 144.113281 194.082031 167.980469 C 214.410156 169.378906 221.390625 186.492188 240.46875 187.804688 C 260.25 196.734375 296.097656 203.777344 302.832031 226.070312 C 283.207031 241.613281 237.773438 193.972656 235.589844 236.988281 C 241.515625 300.53125 240.007812 365.988281 263.25 426.5 C 274.242188 463.140625 300.886719 491.984375 324.957031 520.523438 C 347.988281 548.46875 379.179688 568.144531 410.972656 584.710938 C 438.859375 597.871094 468.921875 606.59375 499.316406 612.066406 C 511.644531 602.636719 533.410156 567.570312 552.640625 582.359375 C 553.554688 598.972656 514.472656 617.089844 550.800781 615.253906 C 572.132812 608.816406 586.933594 631.757812 604.5 611.0625 C 620.683594 630.242188 671.769531 598.8125 660.253906 638.011719 C 644.683594 648.0625 621.972656 641.988281 606.375 655.816406 C 580.660156 642.964844 560.183594 667.3125 531.710938 664.234375 C 500.097656 669.898438 467.933594 672.183594 435.875 672.234375 C 383.289062 668.078125 329.585938 666.328125 279.554688 648.007812 C 251.378906 639.816406 223.871094 623.765625 199.101562 607.707031 Z M 243.515625 626.957031 C 271.035156 638.859375 297.945312 651.40625 328.105469 655.191406 C 375.953125 661.851562 425.363281 672.089844 473.382812 662.746094 C 451.652344 652.929688 429.183594 666.570312 407.53125 655.730469 C 381.566406 661.316406 353.699219 654.300781 327.296875 650.851562 C 297.277344 637.472656 264.878906 628.273438 236.765625 610.914062 C 201.636719 598.078125 254.933594 627.375 264.421875 629.746094 C 286.382812 642.214844 240.273438 623.355469 233.773438 618.171875 C 215.382812 607.851562 213.035156 610.007812 231.953125 620.484375 C 235.761719 622.71875 239.523438 625.054688 243.519531 626.957031 Z M 191.152344 589.9375 C 217.820312 599.816406 191.035156 571.179688 178.816406 572.839844 C 173.402344 563.445312 158.132812 557.511719 168.902344 552.464844 C 149.523438 559.191406 148.601562 526.875 139.496094 531.492188 C 118.996094 525.015625 131.519531 502.082031 107.101562 487.996094 C 104.871094 473.152344 82.839844 460.277344 75.816406 437.886719 C 72.707031 426.425781 50.921875 393.511719 64.308594 424.144531 C 75.703125 453.636719 95.75 478.890625 112.4375 504.117188 C 125.390625 528.132812 140.691406 553.234375 164.285156 568.21875 C 172.242188 575.851562 179.921875 587.542969 191.152344 589.9375 Z M 114.332031 505.566406 C 115.265625 501.535156 119.207031 514.285156 114.332031 505.566406 Z M 223.089844 601.78125 C 228.992188 599.136719 214.597656 598.449219 223.089844 601.78125 Z M 237.5625 607.066406 C 236.066406 599.769531 230.957031 611.144531 237.5625 607.066406 Z M 255.683594 614.625 C 264.308594 606.40625 242.390625 609.441406 255.683594 614.625 Z M 286.742188 631.941406 C 291.984375 624.1875 269.964844 629.015625 286.742188 631.941406 Z M 227.109375 590.351562 C 240.503906 581.683594 209.796875 590.234375 227.109375 590.351562 Z M 240.699219 597.132812 C 240.320312 592.550781 235.855469 599.1875 240.699219 597.132812 Z M 308.632812 639.550781 C 319.554688 646.445312 372.410156 654.660156 339.3125 642.378906 C 333.773438 643.546875 277.945312 626.578125 308.632812 639.550781 Z M 200.78125 555.523438 C 199.722656 550.929688 183.828125 550.445312 200.78125 555.523438 Z M 232.410156 573.960938 C 240.640625 568.222656 215.324219 569.535156 232.410156 573.960938 Z M 259.011719 590.28125 C 270.824219 585.824219 239.847656 585.804688 259.011719 590.28125 Z M 187.914062 541.507812 C 200.726562 551.332031 239.597656 542.765625 207.539062 535.632812 C 192.945312 527.855469 160.0625 522.53125 182.476562 540.324219 L 187.910156 541.503906 Z M 277.03125 595.914062 C 282.371094 586.816406 254.644531 590.71875 277.03125 595.914062 Z M 249.949219 574.382812 C 281.289062 583.253906 223.597656 554.558594 242.21875 571.121094 L 246.34375 572.988281 Z M 304.246094 605.773438 C 333.921875 606.058594 277.4375 601.683594 304.246094 605.773438 Z M 176.492188 524.324219 C 175.332031 518.800781 169.171875 524.792969 176.492188 524.324219 Z M 354.449219 633.945312 C 355.238281 623.960938 344.761719 641.378906 354.449219 633.945312 Z M 227.136719 555.355469 C 225.34375 550.09375 217.867188 555.136719 227.136719 555.355469 Z M 179.308594 520.859375 C 196.347656 519.835938 155.980469 513.347656 179.308594 520.859375 Z M 122.644531 484.21875 C 120.523438 476.050781 104.105469 469.53125 122.644531 484.21875 Z M 271.398438 578.65625 C 268.277344 575.09375 269.933594 579.433594 271.398438 578.65625 Z M 363.988281 635.492188 C 363.691406 630.050781 358.949219 637.550781 363.988281 635.492188 Z M 263.207031 570.191406 C 264.875 563.179688 248.675781 568.066406 263.207031 570.191406 Z M 194.226562 526.460938 C 206.898438 525.101562 173.925781 517.886719 194.226562 526.460938 Z M 310.910156 598.988281 C 330.660156 591.160156 291.660156 595.167969 310.910156 598.988281 Z M 250.214844 557.777344 C 272.980469 560.710938 223.128906 542.285156 245.222656 556.125 Z M 329.335938 606.4375 C 350.585938 593.726562 343.582031 636.203125 365.394531 610.027344 C 386.90625 594.308594 346.8125 629.453125 373.328125 612.828125 C 392.507812 600 420.832031 618.90625 438.726562 625.082031 C 451.59375 624.449219 464.105469 636.214844 477.296875 629.050781 C 502.691406 622.214844 427.636719 618.90625 447.308594 606.769531 C 424.070312 613.53125 406.910156 598.703125 395.472656 583.816406 C 369.410156 577.796875 339.273438 564.464844 326.265625 541.394531 C 320.960938 532.730469 333.929688 542.613281 321.6875 528.449219 C 305.980469 514.476562 298.136719 498.617188 287.597656 481.628906 C 275 474.90625 273.535156 455.125 272.257812 480.964844 C 272.363281 464.65625 257.050781 453.675781 253.320312 458.242188 C 253.25 442.535156 269.695312 450.410156 258.183594 438.785156 C 255.707031 422.507812 247.550781 405.542969 245.09375 387.164062 C 241.28125 378.304688 244.554688 359.328125 232.085938 379.386719 C 227.546875 400.582031 230.582031 353.335938 237.644531 368.917969 C 246.917969 353.019531 234.3125 354.886719 233.800781 357.09375 C 239.84375 343.683594 237.621094 324.652344 232.222656 331.914062 C 235.441406 317.699219 237.308594 279.589844 227.40625 286.34375 C 233.410156 271.476562 238.789062 218.316406 212.730469 238.585938 C 202.167969 238.734375 183.882812 242.421875 175.238281 246.722656 C 202.347656 261.667969 172.511719 252.121094 161.480469 249.742188 C 160.042969 263.574219 149.113281 257.589844 135.460938 257.726562 C 157.265625 260.425781 124.84375 280.039062 112.332031 272.421875 C 96.085938 280.1875 126.351562 299.578125 112.65625 305.570312 C 114.339844 314.609375 87.765625 302.304688 89.851562 323.179688 C 74.078125 316.542969 87.679688 347.9375 95.570312 337.320312 C 122.402344 344.585938 114.460938 361.140625 115.140625 376.871094 C 110.769531 386.035156 93.558594 355.328125 111.308594 356.75 C 97.308594 333.996094 95.820312 348.527344 84.1875 359.09375 C 81.480469 359.863281 113.863281 374.136719 93.539062 381.1875 C 111.421875 383.953125 111.929688 399.597656 115.570312 409.503906 C 126.3125 420.699219 124.117188 397.140625 136.972656 410.597656 C 128.835938 398.609375 93.875 376.824219 122.019531 383.808594 C 121.871094 371.746094 116.933594 362.015625 125.558594 362.253906 C 134.097656 346.777344 116.613281 400.402344 135.863281 380.734375 C 141.191406 378.40625 142.511719 365.242188 152.09375 381.976562 C 166.003906 395.667969 157.117188 405.589844 137.492188 393.054688 C 141.003906 404.96875 163.746094 409.226562 159.46875 427.859375 C 164.003906 444.246094 170.339844 438.214844 175.863281 437.261719 C 180.203125 453.1875 182.660156 441.476562 182.867188 433.902344 C 202.710938 438.152344 198.0625 449.886719 204.277344 458.085938 C 217.949219 464.261719 184.699219 416.230469 208.179688 443.644531 C 232.882812 465.953125 217.441406 475.265625 195.273438 471.691406 C 209.304688 470.558594 213.832031 490.664062 231.378906 489.960938 C 247.382812 497.574219 258.214844 526.824219 230.632812 514.648438 C 221.066406 506.019531 187.207031 495.371094 214.863281 511.785156 C 240.402344 523.617188 260.683594 530.695312 285.320312 545.546875 C 302.949219 558.136719 310.5625 572.554688 317.246094 575.410156 C 302.433594 582.492188 272.597656 569.757812 294.75 565.855469 C 280.933594 563.335938 265.390625 556.347656 278.625 573.566406 C 289.878906 582.96875 318.5 581.972656 323.628906 583.039062 C 319.277344 592.625 311.816406 593.386719 323.804688 594.128906 C 310.429688 601.261719 328.09375 602.367188 329.335938 606.4375 Z M 301.984375 529.167969 C 293.84375 520.652344 291.742188 504.710938 300.535156 518.585938 C 305.050781 520.398438 314.992188 544.644531 301.984375 529.167969 Z M 391.0625 585.773438 C 396.136719 585.445312 391.210938 589.628906 391.0625 585.773438 Z M 289.128906 508.292969 C 288.820312 495.421875 292.074219 518.222656 289.128906 508.292969 Z M 280.28125 496.378906 C 270.042969 476.59375 293.183594 501.980469 280.28125 496.378906 Z M 172.992188 422.304688 C 179.003906 420.699219 175.949219 432.59375 172.992188 422.304688 Z M 258.378906 468.601562 C 262.074219 454.726562 262.71875 480.242188 258.378906 468.601562 Z M 198.054688 426.640625 C 193.804688 418.988281 206.949219 433.824219 198.054688 426.640625 Z M 249.824219 443.242188 C 240.128906 421.507812 256.691406 431.371094 251.96875 446.808594 L 249.828125 443.242188 Z M 160.546875 383.6875 C 156.210938 376.554688 149.039062 355.632812 151.347656 349.246094 C 153.4375 359.644531 173.460938 394.011719 161.171875 363.480469 C 147.585938 337.886719 177.40625 371.785156 180.472656 378.167969 C 181.898438 384.519531 172.09375 376.433594 178.738281 391.324219 C 166.617188 374.375 171.582031 400.6875 160.546875 383.6875 Z M 132.957031 364.667969 C 134.089844 348.085938 139.273438 376.03125 132.957031 364.667969 Z M 145.367188 368.941406 C 151.289062 356.425781 155.410156 386.382812 145.367188 368.941406 Z M 115.507812 345.835938 C 105.234375 335.625 97.804688 326.210938 115.992188 339.5 C 123.003906 339.773438 100.417969 318.09375 117.675781 332.617188 C 135.828125 335.925781 126.636719 362.378906 115.507812 345.835938 Z M 131.191406 345.425781 C 137.160156 339.515625 134.359375 351.246094 131.191406 345.425781 Z M 140.84375 348.523438 C 131.796875 331.5625 151.816406 355.632812 140.84375 348.523438 Z M 121.660156 330.179688 C 91.796875 303.597656 159.1875 344.085938 126.542969 335.109375 L 121.664062 330.183594 Z M 207.226562 379.914062 C 194.300781 372.164062 203.800781 325.34375 208.207031 357.363281 C 220.769531 353.300781 207.511719 373.898438 216.882812 373.710938 C 215.40625 386.707031 211.214844 391.382812 207.222656 379.914062 Z M 238.871094 398.621094 C 240.140625 384.515625 241.539062 408.269531 238.871094 398.621094 Z M 233.375 393.1875 C 234.796875 387.164062 233.519531 400.285156 233.375 393.1875 Z M 127.519531 321.445312 C 108.332031 294.96875 183.273438 348.230469 139.800781 328.164062 C 135.261719 326.976562 129.792969 326.550781 127.515625 321.445312 Z M 188.460938 353.769531 C 186.644531 331.472656 192.515625 357.464844 188.460938 353.769531 Z M 234.730469 383.460938 C 238.3125 370.761719 234.996094 391.863281 234.730469 383.460938 Z M 130.457031 311.339844 C 141.859375 308.898438 177.710938 331.371094 144.789062 317.761719 C 141.128906 313.707031 133.332031 315.550781 130.457031 311.339844 Z M 228.371094 360.164062 C 229.589844 337.367188 235.175781 346.546875 228.414062 363.425781 Z M 138.941406 303.410156 C 143.585938 296.597656 126.605469 272.589844 141.390625 294.800781 C 147.777344 299.878906 159.878906 303.304688 149.191406 305.4375 C 166.003906 320.273438 145.09375 309.460938 138.941406 303.410156 Z M 223.527344 353.039062 C 226.738281 327.070312 226.359375 368.257812 223.527344 353.039062 Z M 129.242188 279.425781 C 132.792969 277.90625 131.117188 284.15625 129.242188 279.425781 Z M 151.304688 292.5625 C 156.984375 280.644531 161.78125 305.851562 151.304688 292.5625 Z M 213.539062 327.191406 C 213.480469 322.617188 214.714844 333.851562 213.539062 327.191406 Z M 209.933594 319.210938 C 201.296875 297.890625 217.972656 330.496094 209.933594 319.210938 Z M 204.632812 305.234375 C 203.179688 296.425781 209.558594 316.296875 204.632812 305.234375 Z M 213.265625 291.195312 C 207.335938 280.75 220.75 245.148438 222.246094 267.226562 C 215.988281 284.425781 220.441406 294.054688 224.804688 270.980469 C 232.867188 252.820312 223.0625 306.8125 213.265625 291.195312 Z M 222.136719 238.253906 C 224.71875 235.082031 222.707031 242.078125 222.136719 238.253906 Z M 207.320312 530.253906 C 203.804688 527.1875 207.761719 532.203125 207.320312 530.253906 Z M 237.835938 545.691406 C 254.8125 550.050781 254.726562 543.050781 239.382812 540.972656 C 231.128906 533.292969 205.09375 525.152344 228.402344 540.019531 C 229.941406 543.929688 234.820312 543.839844 237.835938 545.691406 Z M 177.566406 505.648438 C 186.921875 512.625 212.792969 525.421875 190.886719 508.304688 C 198.273438 499.722656 176.753906 495.15625 183.894531 489.410156 C 165.738281 478.300781 169.570312 479.289062 182.289062 479.636719 C 160.46875 469.882812 185.441406 470.609375 184.265625 465.613281 C 175.851562 463.949219 142.472656 450.769531 162.109375 466.691406 C 142.148438 456.511719 157.351562 470.484375 151.320312 469.007812 C 130.90625 463.441406 169.496094 484.5625 148.074219 479.316406 C 159.789062 488.601562 179.601562 503.097656 153.03125 489.140625 C 149.527344 494.183594 172.042969 501.824219 177.566406 505.652344 Z M 209.484375 523.992188 C 248.296875 536.5 190.457031 508.710938 209.484375 523.992188 Z M 372.871094 623.003906 C 373.371094 615.300781 367.566406 629.574219 372.871094 623.003906 Z M 389.664062 630.074219 C 398.617188 621.394531 390.027344 643.898438 404.5 627.945312 C 404.65625 616.53125 404.050781 609.789062 387.871094 623.65625 C 383.410156 626.128906 381.417969 636.65625 389.664062 630.074219 Z M 123.09375 462.601562 C 120.34375 451.789062 103.820312 451.84375 123.09375 462.601562 Z M 141.027344 474.355469 C 134.367188 463.3125 117.269531 464.359375 141.027344 474.355469 Z M 243.039062 535.898438 C 253 544.746094 288.785156 542.390625 255.136719 536.988281 C 250.152344 529.617188 223.492188 531.394531 243.039062 535.898438 Z M 383.273438 622.535156 C 398.605469 609.667969 368.425781 628.273438 383.273438 622.535156 Z M 415.15625 644.453125 C 415.253906 640.320312 408.550781 646.257812 415.15625 644.453125 Z M 415.203125 638.667969 C 432.179688 620.675781 398.757812 639.734375 415.203125 638.667969 Z M 78.992188 425.667969 C 64.523438 405.019531 70 395.738281 56.046875 378.878906 C 53.40625 365.984375 32.113281 336.722656 45.03125 367.71875 C 56.871094 385.851562 60.386719 413.921875 78.992188 425.667969 Z M 409.882812 632.953125 C 441.117188 612.757812 397.066406 624.15625 409.882812 632.953125 Z M 433.722656 642.296875 C 449.363281 628.863281 423.832031 639.484375 433.722656 642.296875 Z M 117.78125 439.777344 C 122.257812 433.117188 106.222656 438.929688 117.78125 439.777344 Z M 428.746094 635.914062 C 443.886719 626.152344 425.257812 627.648438 426 636.8125 Z M 223.242188 506.34375 C 222.726562 499.75 215.246094 506.902344 223.242188 506.34375 Z M 235.945312 513.65625 C 231.90625 505.488281 229.738281 514.933594 235.945312 513.65625 Z M 453.042969 642.515625 C 472.445312 628.515625 441.285156 639.835938 448.972656 645.167969 L 453.046875 642.515625 Z M 445.617188 638.925781 C 461.417969 625.679688 428.929688 644.796875 445.617188 638.925781 Z M 483.566406 664.210938 C 494.183594 657.101562 470.679688 661.910156 483.566406 664.210938 Z M 127.507812 434.976562 C 141.734375 438.164062 184.34375 470.015625 159.207031 437.179688 C 146.328125 433.367188 154.050781 401.878906 140.917969 407.453125 C 149.734375 422.1875 148.171875 428.457031 129.664062 419.167969 C 106.398438 407.808594 116.589844 424.796875 121.132812 429.476562 C 114.941406 430.886719 129.332031 434.859375 127.507812 434.976562 Z M 62.710938 383.785156 C 65.257812 373.25 39.265625 325.824219 50.4375 360.019531 C 54.46875 367.183594 54.0625 380.761719 62.710938 383.785156 Z M 181.644531 457.136719 C 174.320312 451.007812 181.300781 456.269531 181.644531 457.136719 Z M 199.679688 461.332031 C 199.667969 450.175781 179.746094 456.800781 199.679688 461.332031 Z M 355.96875 559.890625 C 352.988281 552.265625 344.1875 559.71875 355.96875 559.890625 Z M 363.472656 565.375 C 362.371094 561.109375 359.144531 566.199219 363.472656 565.375 Z M 425.421875 604.40625 C 431.382812 600.003906 417.988281 603.84375 425.421875 604.40625 Z M 95.078125 392.050781 C 112.117188 385.449219 76.820312 387.34375 95.078125 392.050781 Z M 342.210938 547.796875 C 342.019531 536.761719 331.347656 550.535156 342.210938 547.796875 Z M 88.34375 376.355469 C 99.289062 372.65625 78.21875 373.917969 88.34375 376.355469 Z M 120.117188 391.75 C 119.917969 388.125 116.757812 393.125 120.117188 391.75 Z M 507.65625 629.472656 C 521.734375 626.617188 553.808594 636.640625 558.996094 625.738281 C 541.902344 625.324219 499.851562 613.675781 497.863281 628.519531 L 501.605469 629.109375 Z M 130.214844 394.296875 C 130.460938 383.113281 121.5 393.882812 130.214844 394.296875 Z M 46.675781 336.328125 C 42.882812 315.019531 32.246094 333.101562 46.675781 336.328125 Z M 66.601562 341.335938 C 66.84375 334.5 48.363281 335.183594 66.601562 341.335938 Z M 77.980469 346.933594 C 74.691406 344.261719 75.40625 350.296875 77.980469 346.933594 Z M 149.613281 392.894531 C 152.988281 389.796875 141.632812 390.597656 149.613281 392.894531 Z M 70.402344 334.3125 C 68.476562 318.21875 47.324219 331.902344 70.402344 334.3125 Z M 29.558594 307.804688 C 28.976562 300.378906 25.578125 310.601562 29.558594 307.804688 Z M 35.632812 303.214844 C 34.640625 294.40625 30.417969 304.332031 35.632812 303.214844 Z M 69.195312 323.253906 C 83.390625 317.679688 43.347656 311.71875 66.296875 322.203125 Z M 518.429688 600.832031 C 527.515625 592.496094 506.886719 598.253906 518.429688 600.832031 Z M 572.699219 628.96875 C 576.339844 618.199219 563.535156 630.390625 572.699219 628.96875 Z M 72.632812 305.660156 C 74.125 295.238281 61.375 307.726562 72.632812 305.660156 Z M 24.875 273.648438 C 22.308594 258.9375 22.660156 233.117188 47.199219 241.84375 C 14.441406 248.347656 69.867188 282.570312 62.867188 255.550781 C 76.640625 256.222656 89.8125 247.410156 82.585938 260.785156 C 109.722656 257.789062 128.535156 234.25 154.746094 237.550781 C 175.164062 234.847656 197.488281 232.796875 219.488281 224.578125 C 237.582031 223.269531 254.996094 203.789062 245.082031 192.238281 C 220.410156 190.152344 194.585938 193.242188 167.316406 198.664062 C 137.105469 204.941406 109.652344 216.882812 79.167969 222.007812 C 49.453125 226 85.144531 233.007812 76.636719 234.570312 C 61.128906 239.949219 95.125 243.585938 74.621094 249.257812 C 61.960938 246.847656 48.78125 242.496094 54.191406 229.144531 C 25.722656 232.84375 0.710938 244.660156 23.199219 273.636719 Z M 93.460938 238.707031 C 100.136719 214.113281 129.21875 258.949219 104.402344 241.976562 C 101.4375 239.757812 96.5625 237.949219 93.460938 238.707031 Z M 94.757812 226.785156 C 104.394531 219.605469 99.878906 230.808594 94.757812 226.785156 Z M 106.992188 226.976562 C 107.859375 215.660156 134.996094 232.96875 111.464844 231.054688 Z M 123.722656 220.25 C 129.835938 213.109375 125.476562 226.605469 123.722656 220.25 Z M 128.003906 217.382812 C 138.179688 205.152344 185.621094 209.574219 150.890625 216.191406 C 141.585938 209.179688 134.453125 220.324219 128.003906 217.382812 Z M 189.917969 207.835938 C 188.367188 174.433594 220.675781 219.707031 189.917969 207.835938 Z M 207.484375 207.742188 C 213.90625 190.90625 232.40625 200.984375 210.453125 204.355469 C 210.933594 206.148438 209.8125 213.046875 207.484375 207.742188 Z M 65.703125 297.019531 C 84.894531 285.265625 45.328125 286.820312 65.703125 297.019531 Z M 79.894531 300.964844 C 86.621094 293.808594 65.269531 298.0625 79.894531 300.964844 Z M 38.085938 271.285156 C 49.046875 262.855469 25.109375 268.078125 38.085938 271.285156 Z M 604.734375 625.894531 C 605.050781 616.121094 596.351562 630.304688 604.734375 625.894531 Z M 547.15625 586.585938 C 548.792969 575.332031 539.753906 587.570312 547.15625 586.585938 Z M 620.566406 629.6875 C 635.898438 629.738281 667.019531 624.921875 633.660156 624.9375 C 628.429688 625.757812 603.160156 625.582031 620.566406 629.683594 Z M 92.375 294.0625 C 104.78125 293.214844 111.785156 280.375 89.972656 281.109375 C 56.167969 277.613281 119.796875 292.691406 85.636719 288.378906 C 81.042969 291.417969 92.109375 294.90625 92.371094 294.0625 Z M 103.300781 299.597656 C 102.003906 291.628906 99.464844 303.832031 103.300781 299.597656 Z M 116.261719 265.019531 C 121.648438 258.339844 108.8125 263.234375 116.261719 265.019531 Z M 75 196.023438 C 97.140625 188.488281 127.425781 180.019531 137.878906 199.734375 C 127.238281 186.921875 133.585938 174.3125 143.632812 193.042969 C 157.847656 211.992188 164.960938 184.421875 155.71875 178.066406 C 166.25 191.15625 178.234375 197.34375 162.769531 178.894531 C 179.574219 158.679688 129.128906 181.542969 117.664062 181.3125 C 112.144531 183.785156 60.710938 194.433594 75 196.023438 Z M 87.976562 171.160156 C 100.605469 161.628906 131.652344 176.832031 111.730469 161.6875 C 109.78125 159.964844 68.097656 173.171875 87.972656 171.160156 Z M 134.015625 173.0625 C 148.796875 173.441406 127.644531 153.199219 145.253906 162.371094 C 142.363281 152.917969 124.75 151.152344 116.136719 147.371094 C 111.269531 156.015625 126.050781 173.179688 134.015625 173.066406 Z M 96.046875 131.257812 C 101.160156 124.328125 87.085938 134.773438 96.046875 131.257812 Z M 114.867188 135.765625 C 138.6875 132.605469 108.796875 125.503906 110.066406 135.511719 Z M 79.730469 108.261719 C 62.960938 86.363281 111.273438 111.941406 94.230469 89.015625 C 79.890625 77.589844 66.109375 101.871094 79.730469 108.261719 Z M 294.960938 224.226562 C 302.648438 210.585938 263.203125 205.839844 289.777344 219.390625 C 292.222656 220.210938 291.667969 225.171875 294.957031 224.226562 Z M 294.960938 224.226562 " fill-opacity="1" fill-rule="nonzero"/><path fill="#000000" d="M 658.035156 130.148438 C 655.28125 140.992188 653.582031 159.210938 652.933594 184.792969 C 652.933594 189.8125 650.667969 192.320312 646.140625 192.320312 C 641.605469 192.320312 638.449219 190.136719 636.671875 185.765625 C 631.8125 173.945312 627.199219 165.6875 622.832031 160.992188 C 617.652344 155.484375 610.769531 152.167969 602.191406 151.035156 C 592.964844 149.578125 569.984375 148.847656 533.238281 148.847656 C 524.824219 148.847656 519.324219 149.738281 516.734375 151.519531 C 515.109375 152.652344 514.300781 155.078125 514.300781 158.804688 L 514.300781 268.820312 C 514.300781 272.546875 516.652344 274.328125 521.347656 274.164062 C 535.746094 274.003906 556.628906 273.03125 583.984375 271.253906 C 589.328125 270.601562 592.929688 268.863281 594.789062 266.03125 C 596.652344 263.199219 598.46875 255.871094 600.25 244.050781 C 601.382812 237.574219 605.191406 235.0625 611.660156 236.519531 C 617.164062 237.652344 619.511719 240.164062 618.703125 244.050781 C 614.171875 266.070312 612.714844 294.730469 614.332031 330.023438 C 614.496094 334.234375 611.824219 336.5 606.324219 336.828125 C 601.789062 337.308594 598.957031 334.886719 597.824219 329.539062 C 593.613281 309.300781 585.804688 298.492188 574.390625 297.117188 C 562.984375 295.742188 544.410156 295.050781 518.675781 295.050781 C 515.761719 295.050781 514.300781 296.105469 514.300781 298.210938 L 514.300781 407.5 C 514.300781 415.597656 517.296875 421.101562 523.289062 424.015625 C 527.980469 426.445312 538.097656 428.632812 553.636719 430.574219 C 561.5625 431.382812 565.042969 434.867188 564.074219 441.019531 C 563.105469 446.363281 555.980469 448.464844 542.710938 447.332031 C 504.347656 444.257812 472.703125 444.417969 447.777344 447.816406 C 440.820312 448.789062 437.339844 445.957031 437.339844 439.320312 C 437.339844 435.109375 440.820312 432.679688 447.777344 432.03125 C 463.640625 430.25 471.570312 416.328125 471.570312 390.257812 L 471.570312 182.363281 C 471.570312 171.679688 469.671875 163.460938 465.867188 157.714844 C 462.0625 151.964844 454.980469 146.742188 444.621094 142.046875 C 438.144531 139.132812 435.71875 135.164062 437.339844 130.148438 C 438.144531 127.074219 439.445312 125.371094 441.222656 125.042969 C 442.84375 124.5625 447.128906 124.886719 454.09375 126.019531 C 464.289062 127.640625 488.324219 128.445312 526.199219 128.445312 C 570.875 128.445312 609.476562 127.476562 642.011719 125.53125 C 652.855469 124.886719 658.277344 125.773438 658.277344 128.207031 C 658.277344 128.851562 658.199219 129.5 658.035156 130.148438 Z M 815.847656 438.835938 C 815.847656 445.3125 812.207031 448.148438 804.921875 447.335938 C 782.585938 445.230469 754.910156 445.558594 721.886719 448.304688 C 715.25 448.957031 711.167969 448.792969 709.628906 447.824219 C 708.089844 446.851562 707.320312 444.179688 707.320312 439.808594 C 707.320312 435.917969 711.734375 432.640625 720.550781 429.972656 C 729.375 427.296875 733.789062 419.324219 733.789062 406.046875 L 733.789062 186.25 C 733.789062 173.132812 731.886719 163.5 728.078125 157.347656 C 724.277344 151.195312 717.601562 146.417969 708.050781 143.019531 C 703.03125 141.238281 700.523438 138.730469 700.523438 135.488281 C 700.523438 130.632812 704.164062 126.992188 711.449219 124.5625 C 722.453125 121 733.867188 115.492188 745.683594 108.046875 C 755.394531 102.214844 761.546875 99.300781 764.136719 99.300781 C 770.125 99.300781 773.117188 103.433594 773.117188 111.6875 C 773.117188 111.042969 772.792969 119.136719 772.148438 135.976562 C 771.664062 152.003906 771.496094 167.789062 771.664062 183.332031 L 772.628906 400.222656 C 772.628906 410.097656 775.0625 417.261719 779.917969 421.710938 C 784.769531 426.167969 793.105469 429.121094 804.921875 430.578125 C 812.210938 431.386719 815.847656 434.136719 815.847656 438.835938 Z M 1037.277344 422.566406 C 1037.277344 425.964844 1031.082031 431.105469 1018.699219 437.984375 C 1006.316406 444.867188 996.402344 448.304688 988.960938 448.304688 C 982.648438 448.304688 977.0625 445.230469 972.207031 439.082031 C 967.351562 432.925781 963.953125 429.851562 962.007812 429.851562 C 960.550781 429.851562 952.863281 433.167969 938.941406 439.804688 C 925.027344 446.445312 911.023438 449.765625 896.941406 449.765625 C 883.667969 449.765625 872.582031 445.878906 863.679688 438.105469 C 853.964844 429.527344 849.109375 417.863281 849.113281 403.132812 C 849.113281 375.121094 881.160156 355.042969 945.257812 342.902344 C 956.261719 340.796875 961.847656 336.34375 962.007812 329.546875 L 962.492188 314 C 963.464844 287.445312 951.730469 274.167969 927.292969 274.167969 C 920.332031 274.167969 913.734375 280.402344 907.507812 292.867188 C 901.269531 305.339844 892.328125 312.058594 880.675781 313.027344 C 867.402344 314.324219 860.765625 308.738281 860.765625 296.269531 C 860.765625 288.5 870.640625 279.433594 890.386719 269.070312 C 911.105469 258.222656 931.015625 252.796875 950.113281 252.796875 C 982.972656 252.796875 999.234375 268.421875 998.914062 299.671875 L 997.945312 399.734375 C 997.78125 410.257812 1002.234375 415.519531 1011.296875 415.519531 C 1013.074219 415.519531 1016.476562 415.117188 1021.492188 414.308594 C 1026.511719 413.496094 1029.425781 413.089844 1030.234375 413.089844 C 1034.929688 413.089844 1037.277344 416.25 1037.277344 422.5625 Z M 962.496094 367.1875 C 962.65625 363.140625 961.726562 360.46875 959.703125 359.175781 C 957.679688 357.878906 954.484375 357.632812 950.113281 358.445312 C 911.105469 365.40625 891.601562 378.117188 891.601562 396.578125 C 891.601562 415.195312 901.71875 424.507812 921.949219 424.507812 C 930.039062 424.507812 938.375 422.964844 946.957031 419.890625 C 956.992188 416.332031 962.011719 412.039062 962.011719 407.019531 Z M 1218.394531 393.660156 C 1218.394531 410.824219 1211.800781 424.464844 1198.609375 434.585938 C 1185.417969 444.707031 1167.410156 449.765625 1144.585938 449.765625 C 1129.375 449.765625 1114.160156 448.148438 1098.945312 444.90625 C 1085.835938 441.992188 1078.226562 439.320312 1076.121094 436.894531 C 1074.824219 434.625 1074.179688 423.535156 1074.179688 403.621094 C 1074.179688 395.039062 1076.121094 390.585938 1080.003906 390.261719 C 1083.890625 389.777344 1087.207031 391.882812 1089.960938 396.578125 C 1102.101562 417.785156 1121.683594 428.390625 1148.71875 428.390625 C 1171.539062 428.390625 1182.949219 420.457031 1182.949219 404.589844 C 1182.949219 397.628906 1180.359375 391.800781 1175.179688 387.105469 C 1169.515625 381.761719 1158.507812 375.527344 1142.160156 368.40625 C 1118.527344 357.878906 1102.746094 348.648438 1094.820312 340.714844 C 1086.238281 332.296875 1081.949219 320.960938 1081.949219 306.714844 C 1081.949219 289.226562 1088.664062 275.625 1102.101562 265.914062 C 1114.5625 256.519531 1131.234375 251.828125 1152.113281 251.828125 C 1165.226562 251.828125 1177.203125 252.875 1188.046875 254.984375 C 1199.703125 257.089844 1205.773438 259.679688 1206.257812 262.753906 C 1207.554688 271.824219 1210.222656 284.9375 1214.269531 302.097656 C 1214.753906 304.207031 1212.488281 305.90625 1207.46875 307.199219 C 1202.128906 308.332031 1198.570312 307.441406 1196.785156 304.527344 C 1184 283.644531 1167.816406 273.199219 1148.230469 273.199219 C 1126.054688 273.199219 1114.96875 280.324219 1114.96875 294.570312 C 1114.96875 302.507812 1117.960938 308.820312 1123.953125 313.515625 C 1129.292969 317.5625 1141.839844 323.875 1161.582031 332.457031 C 1182.300781 341.367188 1196.382812 349.378906 1203.832031 356.5 C 1213.539062 365.730469 1218.394531 378.117188 1218.394531 393.660156 Z M 1500.035156 437.378906 C 1500.035156 443.046875 1496.230469 446.039062 1488.621094 446.363281 C 1477.292969 446.527344 1462.484375 447.335938 1444.191406 448.792969 C 1435.128906 450.574219 1428.652344 449.441406 1424.769531 445.394531 C 1399.195312 417.863281 1377.503906 389.046875 1359.699219 358.929688 C 1358.242188 356.339844 1356.386719 355.042969 1354.117188 355.042969 C 1351.363281 355.042969 1346.589844 357.476562 1339.792969 362.332031 C 1332.183594 366.542969 1328.382812 372.53125 1328.382812 380.304688 C 1328.382812 385.808594 1328.542969 393.742188 1328.863281 404.101562 C 1329.191406 414.464844 1331.78125 421.269531 1336.632812 424.507812 C 1340.035156 426.773438 1347.882812 428.554688 1360.183594 429.851562 C 1367.792969 430.816406 1371.597656 433.652344 1371.597656 438.347656 C 1371.597656 442.074219 1370.992188 444.382812 1369.777344 445.273438 C 1368.5625 446.160156 1365.367188 446.363281 1360.1875 445.878906 C 1344 444.421875 1316.644531 445.230469 1278.121094 448.304688 C 1268.414062 449.117188 1263.152344 447.902344 1262.34375 444.664062 C 1262.019531 443.53125 1261.859375 441.914062 1261.859375 439.804688 C 1261.859375 434.785156 1266.792969 430.984375 1276.664062 428.394531 C 1285.566406 426.128906 1290.019531 415.683594 1290.019531 397.0625 L 1290.019531 184.789062 C 1290.019531 171.511719 1288.722656 162.285156 1286.132812 157.101562 C 1282.578125 150.464844 1275.128906 145.28125 1263.800781 141.558594 C 1258.457031 139.777344 1255.789062 137.269531 1255.789062 134.027344 C 1255.789062 129.332031 1259.585938 125.691406 1267.199219 123.101562 C 1279.484375 118.988281 1291.054688 113.402344 1301.917969 106.339844 C 1310.820312 100.511719 1316.324219 97.601562 1318.425781 97.601562 C 1325.0625 97.601562 1328.382812 101.808594 1328.382812 110.226562 C 1328.382812 109.09375 1328.296875 117.109375 1328.140625 134.269531 C 1327.976562 146.089844 1327.898438 161.960938 1327.898438 181.875 L 1328.382812 333.910156 C 1328.382812 338.121094 1329.515625 340.226562 1331.777344 340.226562 C 1334.207031 340.226562 1337.929688 338.121094 1342.949219 333.910156 C 1356.382812 323.386719 1372.890625 309.625 1392.476562 292.625 C 1396.359375 288.574219 1398.304688 285.335938 1398.304688 282.910156 C 1398.304688 278.539062 1391.746094 275.460938 1378.640625 273.679688 C 1372.972656 273.03125 1370.300781 269.875 1370.628906 264.210938 C 1371.113281 258.542969 1373.945312 256.113281 1379.125 256.921875 C 1390.777344 258.542969 1407.773438 259.433594 1430.109375 259.59375 C 1445.648438 259.757812 1461.105469 259.835938 1476.484375 259.835938 C 1481.503906 260 1484.011719 262.992188 1484.011719 268.820312 C 1484.011719 274.328125 1480.042969 277.320312 1472.113281 277.808594 C 1459.648438 278.292969 1447.914062 281.128906 1436.910156 286.308594 C 1421.53125 293.273438 1405.105469 305.496094 1387.621094 322.980469 C 1386.328125 323.953125 1385.679688 325.167969 1385.679688 326.625 C 1385.679688 328.890625 1388.429688 334.316406 1393.933594 342.894531 C 1414.167969 373.660156 1433.261719 396.898438 1451.234375 412.601562 C 1462.726562 422.480469 1473.488281 427.417969 1483.527344 427.417969 C 1490.96875 427.417969 1495.582031 427.945312 1497.363281 428.996094 C 1499.144531 430.046875 1500.035156 432.84375 1500.035156 437.375 Z M 1500.035156 437.378906 " fill-opacity="1" fill-rule="nonzero"/></svg>