<svg xmlns="http://www.w3.org/2000/svg" xmlns:xlink="http://www.w3.org/1999/xlink" width="2000" zoomAndPan="magnify" viewBox="0 0 1500 749.999995" height="1000" preserveAspectRatio="xMidYMid meet" version="1.0"><defs><clipPath id="48ca4461d5"><path d="M 200.894531 428 L 465 428 L 465 683 L 200.894531 683 Z M 200.894531 428 " clip-rule="nonzero"/></clipPath><clipPath id="43313c95a7"><path d="M 1232 651 L 1298.894531 651 L 1298.894531 683 L 1232 683 Z M 1232 651 " clip-rule="nonzero"/></clipPath><clipPath id="6316ec18a6"><path d="M 849 1 L 1298.894531 1 L 1298.894531 445 L 849 445 Z M 849 1 " clip-rule="nonzero"/></clipPath></defs><g clip-path="url(#48ca4461d5)"><path fill="#00758f" d="M 464.847656 682.398438 L 422.496094 682.398438 C 421.066406 610.898438 416.953125 543.453125 410.164062 480.058594 L 345.292969 682.398438 L 313.035156 682.398438 L 248.875 480.058594 C 244.171875 540.769531 241.191406 608.21875 239.941406 682.398438 L 200.894531 682.398438 C 203.394531 592.128906 209.648438 507.496094 219.65625 428.488281 L 272.378906 428.488281 L 333.496094 615.011719 L 394.972656 428.488281 L 445.191406 428.488281 C 456.152344 520.960938 462.644531 605.597656 464.671875 682.398438 Z M 464.847656 682.398438 Z M 464.847656 682.398438 " fill-opacity="1" fill-rule="nonzero"/></g><path fill="#00758f" d="M 648.652344 495.070312 C 631.4375 588.792969 608.679688 657.015625 580.386719 699.734375 C 558.402344 732.566406 534.277344 748.949219 508.007812 748.890625 C 499 748.457031 490.390625 746.371094 482.183594 742.632812 L 482.183594 720.023438 C 488.117188 720.804688 494.074219 721.164062 500.054688 721.09375 C 502.730469 721.21875 505.394531 721.09375 508.042969 720.710938 C 510.695312 720.332031 513.285156 719.703125 515.816406 718.832031 C 518.351562 717.960938 520.777344 716.859375 523.101562 715.523438 C 525.421875 714.191406 527.601562 712.652344 529.632812 710.90625 C 531.695312 709.214844 533.550781 707.324219 535.203125 705.230469 C 536.851562 703.136719 538.261719 700.890625 539.425781 698.488281 C 540.589844 696.089844 541.484375 693.59375 542.109375 691 C 542.730469 688.410156 543.070312 685.777344 543.125 683.113281 C 541.378906 668.273438 537.894531 653.855469 532.667969 639.855469 L 486.203125 495.070312 L 527.753906 495.070312 L 561.175781 603.390625 C 568.679688 628 571.808594 645.160156 570.554688 654.871094 C 580.003906 629.070312 587.929688 602.804688 594.324219 576.082031 C 600.71875 549.359375 605.546875 522.355469 608.800781 495.070312 Z M 648.652344 495.070312 Z M 648.652344 495.070312 " fill-opacity="1" fill-rule="nonzero"/><path fill="#f29111" d="M 834.246094 611.972656 C 834.308594 614.476562 834.238281 616.976562 834.023438 619.472656 C 833.8125 621.964844 833.460938 624.441406 832.972656 626.898438 C 832.484375 629.355469 831.863281 631.777344 831.105469 634.164062 C 830.347656 636.554688 829.460938 638.890625 828.445312 641.179688 C 827.429688 643.46875 826.289062 645.695312 825.023438 647.855469 C 823.757812 650.019531 822.378906 652.105469 820.882812 654.113281 C 819.386719 656.121094 817.78125 658.039062 816.074219 659.871094 C 814.363281 661.699219 812.558594 663.429688 810.65625 665.058594 C 806.230469 668.644531 801.515625 671.796875 796.511719 674.515625 C 791.511719 677.238281 786.300781 679.480469 780.886719 681.242188 C 775.472656 683.007812 769.945312 684.265625 764.300781 685.015625 C 758.65625 685.765625 752.988281 685.992188 747.300781 685.703125 C 740.886719 685.640625 734.511719 685.097656 728.179688 684.070312 C 721.847656 683.042969 715.628906 681.542969 709.523438 679.574219 C 703.414062 677.601562 697.492188 675.183594 691.753906 672.316406 C 686.015625 669.449219 680.523438 666.167969 675.28125 662.46875 L 686.183594 640.660156 C 694.535156 645.234375 703.296875 648.785156 712.476562 651.324219 C 721.652344 653.859375 730.996094 655.308594 740.511719 655.675781 C 743.664062 655.851562 746.8125 655.765625 749.953125 655.421875 C 753.09375 655.074219 756.183594 654.472656 759.226562 653.613281 C 762.265625 652.753906 765.214844 651.648438 768.074219 650.300781 C 770.929688 648.953125 773.65625 647.378906 776.253906 645.574219 C 778.425781 643.925781 780.375 642.046875 782.105469 639.9375 C 783.835938 637.828125 785.300781 635.546875 786.496094 633.09375 C 787.691406 630.640625 788.585938 628.082031 789.179688 625.421875 C 789.773438 622.757812 790.050781 620.0625 790.011719 617.332031 C 790.011719 602.320312 779.558594 589.449219 760.257812 578.636719 C 742.386719 568.804688 706.644531 548.425781 706.644531 548.425781 C 704.375 547.035156 702.203125 545.5 700.132812 543.824219 C 698.066406 542.144531 696.113281 540.339844 694.28125 538.40625 C 692.453125 536.472656 690.753906 534.425781 689.191406 532.265625 C 687.628906 530.109375 686.214844 527.859375 684.949219 525.515625 C 683.683594 523.171875 682.578125 520.753906 681.632812 518.261719 C 680.683594 515.773438 679.902344 513.230469 679.292969 510.640625 C 678.679688 508.046875 678.238281 505.425781 677.972656 502.773438 C 677.703125 500.125 677.609375 497.46875 677.695312 494.804688 C 677.613281 492.460938 677.664062 490.121094 677.84375 487.785156 C 678.023438 485.449219 678.332031 483.132812 678.769531 480.828125 C 679.203125 478.527344 679.765625 476.257812 680.457031 474.015625 C 681.144531 471.777344 681.957031 469.582031 682.886719 467.433594 C 683.820312 465.28125 684.867188 463.191406 686.03125 461.15625 C 687.195312 459.125 688.46875 457.160156 689.851562 455.269531 C 691.234375 453.375 692.714844 451.566406 694.296875 449.839844 C 695.878906 448.109375 697.554688 446.476562 699.316406 444.933594 C 703.164062 441.6875 707.273438 438.824219 711.652344 436.34375 C 716.03125 433.863281 720.601562 431.808594 725.363281 430.179688 C 730.125 428.550781 734.992188 427.375 739.972656 426.65625 C 744.953125 425.9375 749.957031 425.683594 754.984375 425.898438 C 760.644531 425.851562 766.273438 426.21875 771.875 427 C 777.476562 427.785156 782.992188 428.976562 788.417969 430.574219 C 793.84375 432.167969 799.125 434.15625 804.257812 436.535156 C 809.394531 438.910156 814.324219 441.652344 819.054688 444.753906 L 809.851562 465.847656 C 802.179688 462.445312 794.242188 459.855469 786.042969 458.078125 C 777.839844 456.300781 769.542969 455.375 761.152344 455.300781 C 758.480469 455.089844 755.816406 455.125 753.152344 455.40625 C 750.488281 455.6875 747.875 456.210938 745.308594 456.972656 C 742.742188 457.738281 740.265625 458.730469 737.882812 459.953125 C 735.5 461.171875 733.246094 462.601562 731.128906 464.238281 C 729.363281 465.71875 727.777344 467.367188 726.375 469.191406 C 724.96875 471.015625 723.777344 472.96875 722.796875 475.054688 C 721.816406 477.136719 721.074219 479.300781 720.5625 481.546875 C 720.054688 483.792969 719.792969 486.066406 719.78125 488.371094 C 719.78125 503.382812 730.503906 516.433594 750.25 527.425781 C 768.121094 537.167969 804.578125 557.992188 804.578125 557.992188 C 824.414062 572.023438 834.246094 587.035156 834.246094 611.613281 Z M 834.246094 611.972656 Z M 834.246094 611.972656 " fill-opacity="1" fill-rule="nonzero"/><path fill="#f29111" d="M 909.929688 631.542969 C 899.742188 615.011719 894.558594 588.464844 894.558594 551.914062 C 894.558594 487.921875 913.949219 455.957031 952.730469 456.015625 C 954.925781 455.867188 957.121094 455.863281 959.316406 456.011719 C 961.511719 456.160156 963.6875 456.457031 965.84375 456.898438 C 968 457.339844 970.113281 457.925781 972.191406 458.65625 C 974.265625 459.386719 976.285156 460.253906 978.242188 461.253906 C 980.203125 462.257812 982.082031 463.390625 983.890625 464.648438 C 985.695312 465.90625 987.40625 467.28125 989.027344 468.769531 C 990.644531 470.261719 992.15625 471.855469 993.558594 473.550781 C 994.964844 475.246094 996.246094 477.027344 997.40625 478.894531 C 1007.714844 495.398438 1012.835938 521.734375 1012.777344 557.902344 C 1012.777344 622.367188 993.417969 654.574219 954.695312 654.511719 C 952.5 654.65625 950.304688 654.65625 948.113281 654.503906 C 945.917969 654.351562 943.742188 654.054688 941.589844 653.609375 C 939.433594 653.164062 937.320312 652.578125 935.246094 651.847656 C 933.171875 651.117188 931.152344 650.25 929.195312 649.246094 C 927.238281 648.246094 925.355469 647.113281 923.550781 645.859375 C 921.746094 644.601562 920.03125 643.230469 918.414062 641.742188 C 916.792969 640.253906 915.28125 638.664062 913.875 636.972656 C 912.46875 635.277344 911.183594 633.5 910.019531 631.632812 Z M 1060.671875 688.472656 L 1014.027344 665.503906 C 1018.253906 662.085938 1022.128906 658.300781 1025.644531 654.15625 C 1045.421875 630.859375 1055.308594 596.390625 1055.308594 550.75 C 1055.308594 466.742188 1022.546875 424.734375 957.019531 424.734375 C 953.476562 424.546875 949.933594 424.558594 946.390625 424.773438 C 942.847656 424.984375 939.332031 425.402344 935.835938 426.015625 C 932.339844 426.632812 928.894531 427.445312 925.492188 428.453125 C 922.089844 429.460938 918.753906 430.660156 915.488281 432.050781 C 912.226562 433.441406 909.050781 435.011719 905.964844 436.765625 C 902.878906 438.515625 899.902344 440.4375 897.035156 442.53125 C 894.167969 444.621094 891.429688 446.871094 888.820312 449.273438 C 886.207031 451.679688 883.742188 454.222656 881.425781 456.910156 C 861.707031 480.265625 851.847656 514.613281 851.847656 559.957031 C 851.847656 605.296875 860.605469 638.066406 878.117188 658.265625 C 894.023438 677.035156 918.148438 686.507812 950.40625 686.507812 C 961.671875 686.605469 972.722656 685.117188 983.558594 682.039062 L 1044.140625 717.34375 L 1060.671875 688.832031 Z M 1060.671875 688.472656 Z M 1060.671875 688.472656 " fill-opacity="1" fill-rule="evenodd"/><path fill="#f29111" d="M 1212.574219 682.398438 L 1092.214844 682.398438 L 1092.214844 428.488281 L 1132.691406 428.488281 L 1132.691406 651.117188 L 1212.574219 651.117188 Z M 1212.574219 682.398438 " fill-opacity="1" fill-rule="nonzero"/><g clip-path="url(#43313c95a7)"><path fill="#f29111" d="M 1241.4375 682.308594 L 1248.140625 682.308594 L 1248.140625 656.480469 L 1257.074219 656.480469 L 1257.074219 651.207031 L 1232.414062 651.207031 L 1232.414062 656.480469 L 1241.347656 656.480469 L 1241.347656 682.308594 Z M 1292.546875 682.308594 L 1298.894531 682.308594 L 1298.894531 651.207031 L 1289.332031 651.207031 L 1281.558594 672.476562 L 1273.160156 651.207031 L 1264.222656 651.207031 L 1264.222656 682.308594 L 1270.210938 682.308594 L 1270.210938 658.714844 L 1279.144531 682.308594 L 1283.703125 682.308594 L 1292.636719 658.714844 L 1292.636719 682.308594 Z M 1292.546875 682.308594 Z M 1292.546875 682.308594 " fill-opacity="1" fill-rule="nonzero"/></g><g clip-path="url(#6316ec18a6)"><path fill="#00758f" d="M 1263.417969 343.496094 C 1253.324219 342.851562 1243.277344 343.28125 1233.273438 344.789062 C 1223.273438 346.292969 1213.542969 348.84375 1204.085938 352.433594 C 1199.53125 354.308594 1192.203125 354.308594 1191.578125 360.121094 C 1193.988281 362.53125 1194.257812 366.554688 1196.492188 369.949219 C 1200.664062 377.109375 1205.9375 383.335938 1212.308594 388.628906 C 1218.742188 393.542969 1225.175781 398.460938 1231.964844 402.75 C 1243.851562 410.078125 1257.34375 414.367188 1268.871094 421.785156 C 1275.660156 426.078125 1282.363281 431.527344 1289.152344 436.175781 C 1292.460938 438.589844 1294.605469 442.609375 1298.894531 444.128906 L 1298.894531 443.234375 C 1296.75 440.464844 1296.121094 436.445312 1293.976562 433.40625 L 1285.042969 424.46875 C 1276.015625 412.511719 1265.410156 402.175781 1253.230469 393.457031 C 1243.402344 386.664062 1221.957031 377.457031 1218.027344 366.644531 L 1217.402344 366.019531 C 1224.582031 364.984375 1231.609375 363.316406 1238.488281 361.011719 C 1248.941406 358.332031 1258.414062 358.957031 1269.046875 356.1875 C 1273.960938 354.9375 1278.878906 353.417969 1283.792969 351.898438 L 1283.792969 349.125 C 1278.25 343.585938 1274.320312 336.257812 1268.511719 331.253906 C 1252.632812 317.410156 1235.800781 304.839844 1218.027344 293.535156 C 1208.554688 287.460938 1196.3125 283.4375 1186.214844 278.253906 C 1182.550781 276.378906 1176.476562 275.484375 1174.332031 272.355469 C 1169.277344 264.945312 1165.078125 257.082031 1161.730469 248.761719 C 1152.796875 231.960938 1143.859375 213.011719 1136.710938 195.136719 C 1132.25 182.949219 1127.097656 171.066406 1121.253906 159.476562 C 1114.179688 147.453125 1106.324219 135.960938 1097.6875 125 C 1089.054688 114.039062 1079.722656 103.710938 1069.6875 94.015625 C 1059.65625 84.320312 1049.011719 75.34375 1037.765625 67.09375 C 1026.515625 58.839844 1014.761719 51.382812 1002.5 44.722656 C 990.058594 38.667969 977.011719 34.496094 963.363281 32.210938 C 955.769531 32.210938 948.082031 31.226562 940.488281 30.960938 C 935.515625 27.734375 930.8125 24.160156 926.371094 20.234375 C 908.5 9.152344 863.820312 -14.710938 851.132812 16.839844 C 842.910156 36.859375 863.375 56.429688 870.433594 66.53125 C 876.347656 73.691406 881.527344 81.347656 885.980469 89.5 C 888.125 94.773438 888.75 100.3125 890.894531 105.765625 C 895.386719 119.78125 900.6875 133.488281 906.800781 146.875 C 910.117188 153.5 913.898438 159.847656 918.148438 165.914062 C 920.5625 169.308594 924.851562 170.828125 925.746094 176.371094 C 922.375 183.707031 920.050781 191.363281 918.773438 199.339844 C 907.695312 234.015625 911.984375 276.914062 927.710938 302.382812 C 932.535156 310.070312 944.242188 326.960938 959.789062 320.257812 C 973.550781 314.808594 970.511719 297.289062 974.53125 282.007812 C 975.425781 278.253906 974.53125 275.839844 976.585938 273.070312 L 976.585938 273.605469 C 980.875 282.542969 985.523438 290.5 989.1875 299.078125 C 994.609375 307.0625 1000.648438 314.550781 1007.308594 321.539062 C 1013.964844 328.527344 1021.148438 334.921875 1028.859375 340.726562 C 1036.1875 346.265625 1041.996094 355.738281 1051.199219 359.136719 L 1051.199219 358.601562 L 1050.574219 358.601562 C 1048.492188 356.234375 1046.140625 354.175781 1043.515625 352.433594 C 1037.699219 346.742188 1032.398438 340.605469 1027.609375 334.023438 C 1014.617188 316.375 1003.210938 297.753906 993.386719 278.164062 C 988.472656 268.601562 984.449219 258.144531 980.25 248.671875 C 978.375 245.007812 978.375 239.734375 975.335938 237.679688 C 969.546875 243.9375 964.570312 250.789062 960.414062 258.234375 C 955.273438 273.25 952.292969 288.679688 951.480469 304.53125 C 950.226562 304.53125 950.851562 304.53125 950.226562 305.15625 C 940.488281 302.652344 937.09375 292.554688 933.429688 283.972656 C 931.0625 277.4375 929.21875 270.753906 927.902344 263.925781 C 926.582031 257.097656 925.808594 250.210938 925.570312 243.261719 C 925.335938 236.3125 925.644531 229.386719 926.5 222.484375 C 927.351562 215.582031 928.738281 208.792969 930.660156 202.109375 C 932.804688 195.675781 942.007812 175.296875 938.253906 169.308594 C 936.46875 163.410156 930.300781 160.371094 926.996094 155.457031 C 922.6875 149.292969 919.023438 142.769531 916.003906 135.882812 C 908.675781 118.632812 904.925781 99.6875 897.0625 82.261719 C 892.585938 73.972656 887.460938 66.109375 881.691406 58.664062 C 875.316406 51.257812 869.714844 43.304688 864.894531 34.804688 C 863.375 31.40625 861.230469 25.867188 863.640625 22.203125 C 863.734375 21.679688 863.90625 21.1875 864.160156 20.71875 C 864.414062 20.253906 864.734375 19.839844 865.121094 19.476562 C 865.503906 19.117188 865.941406 18.824219 866.421875 18.601562 C 866.902344 18.378906 867.40625 18.238281 867.929688 18.179688 C 871.953125 14.785156 883.210938 19.074219 887.230469 20.949219 C 898.144531 25.074219 908.449219 30.375 918.148438 36.859375 C 922.4375 39.898438 927.085938 45.796875 932.445312 47.226562 L 938.878906 47.226562 C 948.707031 49.371094 959.699219 47.851562 968.902344 50.621094 C 984.488281 55.808594 999.171875 62.871094 1012.957031 71.804688 C 1023.039062 78.253906 1032.65625 85.335938 1041.800781 93.058594 C 1050.949219 100.777344 1059.546875 109.070312 1067.597656 117.929688 C 1075.648438 126.789062 1083.078125 136.136719 1089.890625 145.980469 C 1096.707031 155.824219 1102.839844 166.070312 1108.296875 176.726562 C 1112.050781 183.699219 1113.570312 190.222656 1117.234375 197.550781 C 1123.667969 212.566406 1131.621094 227.9375 1138.054688 242.238281 C 1143.722656 256.769531 1150.957031 270.472656 1159.765625 283.347656 C 1164.414062 289.78125 1182.730469 293.179688 1190.953125 296.574219 C 1198.171875 299.175781 1205.230469 302.152344 1212.128906 305.511719 C 1222.492188 311.949219 1232.859375 319.277344 1242.6875 326.335938 C 1247.511719 330.089844 1262.882812 337.6875 1263.777344 344.210938 Z M 1263.417969 343.496094 Z M 1263.417969 343.496094 " fill-opacity="1" fill-rule="evenodd"/></g><path fill="#00758f" d="M 951.480469 76.898438 C 947.207031 76.855469 943.003906 77.390625 938.878906 78.507812 L 938.878906 79.132812 L 939.503906 79.132812 C 942.484375 83.535156 945.761719 87.707031 949.335938 91.644531 C 951.746094 96.558594 953.890625 101.476562 956.304688 106.390625 L 956.929688 105.765625 C 958.0625 104.863281 959.070312 103.835938 959.945312 102.683594 C 960.820312 101.527344 961.539062 100.28125 962.101562 98.949219 C 962.664062 97.613281 963.054688 96.226562 963.265625 94.792969 C 963.480469 93.359375 963.511719 91.921875 963.363281 90.480469 C 961.574219 88.335938 961.21875 86.191406 959.699219 84.046875 C 958.179688 81.902344 953.890625 79.488281 951.480469 76.988281 Z M 951.480469 76.898438 Z M 951.480469 76.898438 " fill-opacity="1" fill-rule="evenodd"/></svg>