<svg xmlns="http://www.w3.org/2000/svg" xmlns:xlink="http://www.w3.org/1999/xlink" width="2000" zoomAndPan="magnify" viewBox="0 0 1500 749.999995" height="1000" preserveAspectRatio="xMidYMid meet" version="1.0"><rect x="-150" width="1800" fill="#ffffff" y="-74.999999" height="899.999994" fill-opacity="1"/><path fill="#cf402d" d="M 1081.003906 282.011719 L 1050.292969 282.011719 L 1050.292969 470.054688 L 1194.589844 470.054688 L 1214.140625 439.332031 L 1081.003906 439.332031 Z M 659.8125 291.324219 L 547.175781 470.0625 L 584.417969 470.0625 L 618.394531 416.070312 L 691.007812 416.070312 L 710.09375 385.355469 L 637.480469 385.355469 L 677.046875 323.449219 L 769.675781 470.070312 L 806.910156 470.070312 L 693.332031 290.847656 C 686.347656 279.214844 667.726562 279.214844 659.8125 291.324219 Z M 878.113281 312.675781 L 1007.277344 312.675781 L 1026.324219 281.980469 L 877.164062 282.066406 C 825.273438 282.066406 791.121094 324.136719 791.121094 376.03125 C 791.121094 427.9375 825.28125 470.007812 877.164062 470.007812 L 1003.339844 469.855469 L 1023.089844 439.390625 L 878.105469 439.390625 C 843.117188 439.390625 822.660156 411.023438 822.660156 376.03125 C 822.667969 341.042969 843.125 312.675781 878.113281 312.675781 Z M 218.957031 282.066406 L 85.832031 282.066406 C 33.9375 282.066406 -0.222656 324.136719 -0.222656 376.039062 C -0.222656 427.9375 33.9375 470.007812 85.832031 470.007812 L 218.957031 470.007812 C 270.847656 470.007812 305.011719 427.9375 305.011719 376.039062 C 305.011719 324.136719 270.847656 282.066406 218.957031 282.066406 Z M 218.957031 439.390625 L 85.832031 439.390625 C 50.84375 439.390625 30.386719 411.023438 30.386719 376.039062 C 30.386719 341.050781 50.84375 312.675781 85.832031 312.675781 L 218.957031 312.675781 C 253.945312 312.675781 274.402344 341.050781 274.402344 376.039062 C 274.402344 411.023438 253.945312 439.390625 218.957031 439.390625 Z M 1301.941406 312.675781 L 1431.109375 312.675781 L 1450.167969 281.980469 L 1301.011719 282.066406 C 1249.105469 282.066406 1214.949219 324.136719 1214.949219 376.03125 C 1214.949219 427.9375 1249.113281 470.007812 1301.011719 470.007812 L 1427.171875 469.855469 L 1446.921875 439.390625 L 1301.933594 439.390625 C 1272.0625 439.390625 1252.945312 418.738281 1247.949219 390.929688 L 1410.617188 390.929688 L 1430.167969 360.207031 L 1247.949219 360.207031 C 1253.273438 332.980469 1272.496094 312.675781 1301.941406 312.675781 Z M 480.078125 393.65625 C 481.90625 393.65625 483.726562 393.566406 485.546875 393.386719 C 487.363281 393.207031 489.171875 392.941406 490.960938 392.582031 C 492.753906 392.226562 494.523438 391.785156 496.273438 391.253906 C 498.023438 390.722656 499.738281 390.109375 501.429688 389.410156 C 503.117188 388.710938 504.765625 387.929688 506.378906 387.066406 C 507.988281 386.207031 509.554688 385.269531 511.074219 384.253906 C 512.59375 383.238281 514.058594 382.152344 515.472656 380.992188 C 516.882812 379.832031 518.234375 378.605469 519.527344 377.316406 C 520.820312 376.023438 522.046875 374.671875 523.203125 373.257812 C 524.363281 371.847656 525.449219 370.378906 526.464844 368.859375 C 527.480469 367.339844 528.417969 365.777344 529.28125 364.164062 C 530.140625 362.554688 530.921875 360.902344 531.621094 359.214844 C 532.320312 357.527344 532.933594 355.808594 533.464844 354.0625 C 533.996094 352.3125 534.441406 350.542969 534.796875 348.75 C 535.152344 346.957031 535.421875 345.152344 535.597656 343.335938 C 535.777344 341.515625 535.867188 339.691406 535.867188 337.867188 C 535.867188 336.039062 535.777344 334.214844 535.597656 332.398438 C 535.421875 330.578125 535.152344 328.773438 534.796875 326.980469 C 534.441406 325.191406 533.996094 323.417969 533.464844 321.671875 C 532.933594 319.921875 532.320312 318.203125 531.621094 316.515625 C 530.921875 314.828125 530.140625 313.179688 529.28125 311.566406 C 528.417969 309.957031 527.480469 308.390625 526.464844 306.871094 C 525.449219 305.351562 524.363281 303.886719 523.203125 302.472656 C 522.046875 301.0625 520.820312 299.707031 519.527344 298.417969 C 518.234375 297.125 516.882812 295.898438 515.472656 294.738281 C 514.058594 293.582031 512.59375 292.492188 511.074219 291.476562 C 509.554688 290.464844 507.988281 289.523438 506.378906 288.664062 C 504.765625 287.800781 503.117188 287.023438 501.429688 286.324219 C 499.738281 285.625 498.023438 285.007812 496.273438 284.480469 C 494.523438 283.949219 492.753906 283.503906 490.960938 283.148438 C 489.171875 282.792969 487.363281 282.523438 485.546875 282.34375 C 483.726562 282.164062 481.90625 282.078125 480.078125 282.078125 L 323.445312 282.011719 L 323.445312 470.054688 L 357.890625 470.054688 L 357.890625 312.6875 L 480.078125 312.6875 C 480.902344 312.6875 481.722656 312.726562 482.542969 312.808594 C 483.363281 312.890625 484.179688 313.011719 484.984375 313.175781 C 485.792969 313.335938 486.59375 313.539062 487.378906 313.777344 C 488.167969 314.019531 488.941406 314.296875 489.703125 314.613281 C 490.464844 314.929688 491.207031 315.28125 491.933594 315.671875 C 492.660156 316.058594 493.367188 316.484375 494.050781 316.941406 C 494.734375 317.398438 495.394531 317.890625 496.03125 318.414062 C 496.667969 318.9375 497.277344 319.488281 497.859375 320.074219 C 498.441406 320.65625 498.996094 321.265625 499.519531 321.902344 C 500.039062 322.539062 500.53125 323.203125 500.988281 323.886719 C 501.445312 324.574219 501.867188 325.277344 502.253906 326.003906 C 502.644531 326.730469 502.996094 327.476562 503.308594 328.238281 C 503.625 329 503.902344 329.773438 504.140625 330.5625 C 504.378906 331.351562 504.582031 332.148438 504.742188 332.957031 C 504.902344 333.765625 505.023438 334.578125 505.101562 335.398438 C 505.183594 336.21875 505.222656 337.042969 505.222656 337.867188 C 505.222656 338.691406 505.183594 339.511719 505.101562 340.332031 C 505.023438 341.152344 504.902344 341.964844 504.742188 342.773438 C 504.582031 343.582031 504.378906 344.378906 504.140625 345.167969 C 503.902344 345.957031 503.625 346.734375 503.308594 347.492188 C 502.996094 348.253906 502.644531 349 502.253906 349.726562 C 501.867188 350.453125 501.445312 351.160156 500.988281 351.84375 C 500.53125 352.53125 500.039062 353.191406 499.519531 353.828125 C 498.996094 354.464844 498.441406 355.074219 497.859375 355.660156 C 497.277344 356.242188 496.667969 356.792969 496.03125 357.316406 C 495.394531 357.839844 494.734375 358.332031 494.050781 358.789062 C 493.367188 359.25 492.660156 359.671875 491.933594 360.0625 C 491.207031 360.449219 490.464844 360.804688 489.703125 361.121094 C 488.941406 361.433594 488.167969 361.714844 487.378906 361.953125 C 486.59375 362.195312 485.792969 362.394531 484.984375 362.554688 C 484.179688 362.71875 483.363281 362.839844 482.542969 362.921875 C 481.722656 363.003906 480.902344 363.046875 480.078125 363.046875 L 382.101562 363.046875 L 492.628906 469.847656 L 537.09375 469.847656 L 457.96875 393.726562 Z M 1483.113281 279.726562 C 1473.875 279.726562 1466.070312 286.832031 1466.070312 296.460938 C 1466.070312 306.183594 1473.875 313.296875 1483.113281 313.296875 C 1492.261719 313.296875 1500.074219 306.191406 1500.074219 296.460938 C 1500.074219 286.824219 1492.253906 279.726562 1483.113281 279.726562 Z M 1483.113281 310.488281 C 1475.4375 310.488281 1469.441406 304.539062 1469.441406 296.453125 C 1469.441406 288.507812 1475.4375 282.515625 1483.113281 282.515625 C 1490.707031 282.515625 1496.6875 288.515625 1496.6875 296.453125 C 1496.6875 304.539062 1490.707031 310.488281 1483.113281 310.488281 Z M 1483.113281 310.488281 " fill-opacity="1" fill-rule="evenodd"/><path fill="#cf402d" d="M 1485.824219 297.664062 C 1488.660156 297.3125 1490.835938 295.796875 1490.835938 292.332031 C 1490.835938 288.515625 1488.582031 286.824219 1484.003906 286.824219 L 1476.625 286.824219 L 1476.625 306.183594 L 1479.550781 306.183594 L 1479.550781 297.792969 L 1482.9375 297.792969 L 1488.042969 306.183594 L 1491.316406 306.183594 Z M 1479.550781 295.308594 L 1479.550781 289.308594 L 1483.5625 289.308594 C 1485.597656 289.308594 1487.773438 289.75 1487.773438 292.148438 C 1487.773438 295.125 1485.550781 295.300781 1483.054688 295.300781 L 1479.550781 295.300781 Z M 1479.550781 295.308594 " fill-opacity="1" fill-rule="evenodd"/></svg>