<svg xmlns="http://www.w3.org/2000/svg" xmlns:xlink="http://www.w3.org/1999/xlink" width="2000" zoomAndPan="magnify" viewBox="0 0 1500 749.999995" height="1000" preserveAspectRatio="xMidYMid meet" version="1.0"><path fill="#020501" d="M 1176.402344 402.457031 C 1176.402344 401.039062 1176.402344 399.621094 1176.402344 398.203125 C 1180.582031 398.203125 1184.757812 398.203125 1188.9375 398.203125 C 1189.269531 410.386719 1195.214844 418.4375 1206.78125 422.355469 C 1213.847656 424.464844 1221.070312 425.421875 1228.449219 425.230469 C 1234.773438 425.382812 1241.003906 424.710938 1247.144531 423.207031 C 1257.125 420.90625 1262.222656 414.628906 1262.441406 404.375 C 1262.246094 397.414062 1258.988281 392.554688 1252.667969 389.796875 C 1248.914062 388.535156 1245.089844 387.542969 1241.195312 386.816406 C 1231.367188 385.046875 1221.523438 383.34375 1211.667969 381.710938 C 1205.679688 380.652344 1199.800781 379.160156 1194.035156 377.238281 C 1184.472656 373.347656 1179.65625 366.183594 1179.589844 355.746094 C 1179.402344 344.953125 1184.144531 337.292969 1193.824219 332.761719 C 1200.859375 330.0625 1208.152344 328.570312 1215.703125 328.292969 C 1226.054688 327.46875 1236.320312 328.039062 1246.507812 329.996094 C 1251.863281 331.117188 1256.820312 333.175781 1261.378906 336.167969 C 1268.835938 341.921875 1272.375 349.546875 1272 359.042969 C 1267.679688 359.042969 1263.359375 359.042969 1259.042969 359.042969 C 1258.902344 349.152344 1254.230469 342.449219 1245.019531 338.933594 C 1238.425781 336.835938 1231.664062 335.808594 1224.730469 335.847656 C 1217.84375 335.804688 1211.082031 336.691406 1204.445312 338.507812 C 1195.535156 341.699219 1191.535156 348.046875 1192.441406 357.554688 C 1193.214844 362.332031 1195.726562 365.84375 1199.984375 368.089844 C 1200.921875 368.472656 1201.84375 368.898438 1202.746094 369.367188 C 1206.578125 370.59375 1210.472656 371.585938 1214.429688 372.34375 C 1222.890625 374.019531 1231.390625 375.507812 1239.921875 376.8125 C 1247.347656 378 1254.570312 379.914062 1261.589844 382.558594 C 1267.992188 385.070312 1272.277344 389.574219 1274.441406 396.074219 C 1274.835938 397.472656 1275.117188 398.890625 1275.292969 400.328125 C 1276.667969 414.847656 1270.542969 424.601562 1256.917969 429.589844 C 1249.882812 431.910156 1242.660156 433.1875 1235.246094 433.421875 C 1225.546875 433.984375 1215.917969 433.417969 1206.355469 431.71875 C 1199.230469 430.417969 1192.714844 427.722656 1186.8125 423.632812 C 1180.261719 418.132812 1176.792969 411.074219 1176.402344 402.457031 Z M 1176.402344 402.457031 " fill-opacity="1" fill-rule="evenodd"/><path fill="#020501" d="M 1337.429688 327.972656 C 1347.890625 327.519531 1358.160156 328.6875 1368.234375 331.484375 C 1382.195312 335.753906 1392.636719 344.300781 1399.570312 357.128906 C 1404.242188 367.910156 1405.660156 379.117188 1403.816406 390.753906 C 1401.800781 403.359375 1395.675781 413.363281 1385.441406 420.761719 C 1391.1875 424.808594 1396.992188 428.78125 1402.863281 432.675781 C 1403.097656 432.9375 1403.132812 433.222656 1402.96875 433.527344 C 1400.464844 435.6875 1398.023438 437.921875 1395.640625 440.230469 C 1395.355469 440.375 1395.070312 440.375 1394.789062 440.230469 C 1388.738281 435.960938 1382.644531 431.738281 1376.519531 427.570312 C 1370.277344 430.605469 1363.691406 432.414062 1356.761719 432.996094 C 1345.519531 434.265625 1334.332031 433.910156 1323.199219 431.933594 C 1308.226562 429.1875 1296.292969 421.703125 1287.402344 409.480469 C 1281.078125 399.253906 1278.457031 388.117188 1279.542969 376.070312 C 1281.125 356.683594 1290.648438 342.816406 1308.113281 334.464844 C 1317.503906 330.464844 1327.273438 328.300781 1337.429688 327.972656 Z M 1338.492188 336.0625 C 1348.015625 335.566406 1357.222656 337.023438 1366.109375 340.421875 C 1383.300781 348.328125 1392.011719 361.804688 1392.238281 380.859375 C 1391.660156 403.28125 1380.613281 417.46875 1359.097656 423.421875 C 1346.140625 426.5 1333.324219 426.003906 1320.648438 421.929688 C 1301.9375 414.636719 1292.308594 400.910156 1291.757812 380.75 C 1292.417969 357.851562 1303.820312 343.558594 1325.960938 337.871094 C 1330.125 336.953125 1334.300781 336.351562 1338.492188 336.0625 Z M 1338.492188 336.0625 " fill-opacity="1" fill-rule="evenodd"/><path fill="#010400" d="M 702.238281 388.199219 C 686.023438 388.199219 669.808594 388.199219 653.589844 388.199219 C 653.589844 402.457031 653.589844 416.714844 653.589844 430.976562 C 649.699219 430.976562 645.800781 430.976562 641.90625 430.976562 C 641.90625 397.5625 641.90625 364.152344 641.90625 330.742188 C 659.339844 330.578125 676.832031 330.4375 694.378906 330.316406 C 700.078125 330.121094 705.742188 330.4375 711.375 331.273438 C 724.738281 334.230469 732.207031 342.492188 733.785156 356.066406 C 734.742188 371.84375 727.695312 382.023438 712.648438 386.605469 C 709.238281 387.542969 705.769531 388.074219 702.238281 388.199219 Z M 653.804688 338.613281 C 670.023438 338.519531 686.238281 338.625 702.453125 338.933594 C 707.152344 339.320312 711.398438 340.878906 715.199219 343.617188 C 718.589844 346.664062 720.605469 350.457031 721.253906 355 C 721.996094 359.726562 721.570312 364.335938 719.980469 368.832031 C 717.195312 374.332031 712.769531 377.773438 706.699219 379.15625 C 704.382812 379.675781 702.042969 380.066406 699.691406 380.324219 C 684.394531 380.324219 669.097656 380.324219 653.804688 380.324219 C 653.804688 366.421875 653.804688 352.519531 653.804688 338.613281 Z M 653.804688 338.613281 " fill-opacity="1" fill-rule="evenodd"/><path fill="#010400" d="M 1416.671875 330.527344 C 1417.023438 330.527344 1417.378906 330.527344 1417.734375 330.527344 C 1420 330.527344 1422.265625 330.527344 1424.53125 330.527344 C 1424.53125 361.242188 1424.53125 391.960938 1424.53125 422.675781 C 1449.457031 422.675781 1474.382812 422.675781 1499.308594 422.675781 C 1499.308594 424.875 1499.308594 427.074219 1499.308594 429.273438 C 1499.308594 429.414062 1499.308594 429.554688 1499.308594 429.699219 C 1499.105469 430.074219 1499.035156 430.5 1499.097656 430.976562 C 1470.347656 430.976562 1441.597656 430.976562 1412.847656 430.976562 C 1412.847656 397.5625 1412.847656 364.152344 1412.847656 330.742188 C 1414.160156 330.808594 1415.4375 330.738281 1416.671875 330.527344 Z M 1416.671875 330.527344 " fill-opacity="1" fill-rule="evenodd"/><path fill="#1c2125" d="M 939.957031 372.027344 C 939.957031 369.757812 939.957031 367.484375 939.957031 365.214844 C 934.011719 365.214844 928.0625 365.214844 922.113281 365.214844 C 922.113281 358.050781 922.113281 350.886719 922.113281 343.722656 C 918.785156 343.722656 915.457031 343.722656 912.128906 343.722656 C 912.199219 350.285156 912.128906 356.8125 911.917969 363.300781 C 911.917969 356.703125 911.917969 350.105469 911.917969 343.507812 C 915.386719 343.507812 918.855469 343.507812 922.324219 343.507812 C 922.324219 350.675781 922.324219 357.839844 922.324219 365.003906 C 928.273438 365.003906 934.222656 365.003906 940.171875 365.003906 C 940.242188 367.382812 940.167969 369.722656 939.957031 372.027344 Z M 939.957031 372.027344 " fill-opacity="0.861" fill-rule="evenodd"/><path fill="#010400" d="M 939.957031 372.027344 C 939.320312 372.027344 938.683594 372.027344 938.046875 372.027344 C 932.773438 371.8125 927.460938 371.742188 922.113281 371.8125 C 922.042969 386.957031 922.113281 402.070312 922.324219 417.140625 C 922.265625 420.398438 923.683594 422.703125 926.574219 424.058594 C 927.8125 424.503906 929.089844 424.789062 930.398438 424.910156 C 933.695312 425.554688 936.917969 425.304688 940.066406 424.164062 C 940.171875 426.574219 940.207031 428.988281 940.171875 431.402344 C 934.429688 432.285156 928.691406 432.25 922.964844 431.292969 C 920.492188 430.824219 918.226562 429.902344 916.164062 428.527344 C 913.527344 426.1875 912.183594 423.242188 912.128906 419.695312 C 912.128906 403.734375 912.128906 387.773438 912.128906 371.8125 C 907.667969 371.8125 903.207031 371.8125 898.746094 371.8125 C 898.464844 369.597656 898.464844 367.363281 898.746094 365.109375 C 903.132812 365.003906 907.527344 364.96875 911.917969 365.003906 C 911.917969 364.4375 911.917969 363.867188 911.917969 363.300781 C 912.128906 356.8125 912.199219 350.285156 912.128906 343.722656 C 915.457031 343.722656 918.785156 343.722656 922.113281 343.722656 C 922.113281 350.886719 922.113281 358.050781 922.113281 365.214844 C 928.0625 365.214844 934.011719 365.214844 939.957031 365.214844 C 939.957031 367.484375 939.957031 369.757812 939.957031 372.027344 Z M 939.957031 372.027344 " fill-opacity="1" fill-rule="evenodd"/><path fill="#020502" d="M 768.734375 362.875 C 776.4375 362.539062 784.015625 363.355469 791.464844 365.324219 C 807.25 370.539062 815.253906 381.496094 815.46875 398.203125 C 815.5 413.65625 808.417969 424.261719 794.226562 430.015625 C 784.671875 433.066406 774.898438 434.0625 764.910156 432.996094 C 756.1875 432.355469 748.464844 429.304688 741.753906 423.847656 C 734.601562 416.964844 731.0625 408.523438 731.132812 398.519531 C 730.941406 383.855469 737.382812 373.359375 750.464844 367.023438 C 756.339844 364.59375 762.429688 363.210938 768.734375 362.875 Z M 770.007812 370.109375 C 776.625 369.808594 783.066406 370.695312 789.339844 372.769531 C 798.753906 376.75 803.816406 383.878906 804.527344 394.160156 C 805.925781 414.042969 796.683594 424.71875 776.804688 426.1875 C 770.164062 426.777344 763.71875 425.925781 757.472656 423.632812 C 749.082031 419.773438 744.019531 413.28125 742.285156 404.160156 C 740.878906 396.1875 742.226562 388.738281 746.320312 381.816406 C 750.5625 376.121094 756.191406 372.539062 763.210938 371.070312 C 765.496094 370.660156 767.761719 370.34375 770.007812 370.109375 Z M 770.007812 370.109375 " fill-opacity="1" fill-rule="evenodd"/><path fill="#020502" d="M 892.796875 382.667969 C 892.796875 383.375 892.796875 384.085938 892.796875 384.792969 C 889.328125 384.792969 885.855469 384.792969 882.386719 384.792969 C 882.445312 384.453125 882.371094 384.171875 882.175781 383.945312 C 881.835938 379.53125 879.855469 376.089844 876.226562 373.621094 C 871.589844 371.148438 866.636719 369.871094 861.355469 369.792969 C 855.492188 369.464844 849.683594 369.890625 843.9375 371.070312 C 840.730469 371.769531 837.933594 373.222656 835.546875 375.429688 C 832.664062 379.09375 832.378906 382.925781 834.695312 386.921875 C 836.6875 388.933594 839.058594 390.316406 841.8125 391.074219 C 845.042969 391.796875 848.296875 392.367188 851.585938 392.773438 C 857.878906 393.5625 864.179688 394.273438 870.492188 394.902344 C 875.429688 395.421875 880.246094 396.484375 884.9375 398.09375 C 894.121094 401.707031 897.625 408.339844 895.453125 417.992188 C 894.203125 422.222656 891.6875 425.453125 887.910156 427.675781 C 883.347656 430.1875 878.460938 431.746094 873.253906 432.359375 C 864.269531 433.519531 855.277344 433.589844 846.273438 432.570312 C 840.75 432.144531 835.511719 430.726562 830.554688 428.316406 C 824.007812 424.253906 820.539062 418.332031 820.144531 410.546875 C 823.96875 410.472656 827.792969 410.402344 831.613281 410.332031 C 831.433594 414.898438 833.0625 418.621094 836.5 421.503906 C 840.238281 423.96875 844.347656 425.457031 848.824219 425.972656 C 856.339844 427.015625 863.847656 426.945312 871.339844 425.761719 C 875.289062 425.199219 878.832031 423.710938 881.960938 421.292969 C 884.859375 418.210938 885.671875 414.628906 884.40625 410.546875 C 882.964844 407.28125 880.523438 405.117188 877.078125 404.054688 C 864.40625 402.195312 851.730469 400.351562 839.050781 398.519531 C 825.613281 396.417969 820.550781 388.792969 823.859375 375.644531 C 825.660156 371.570312 828.601562 368.628906 832.675781 366.8125 C 838.71875 364.652344 844.949219 363.445312 851.371094 363.195312 C 859.832031 362.550781 868.1875 363.191406 876.441406 365.109375 C 881.554688 366.375 885.839844 368.964844 889.292969 372.878906 C 891.40625 375.792969 892.574219 379.054688 892.796875 382.667969 Z M 892.796875 382.667969 " fill-opacity="1" fill-rule="evenodd"/><path fill="#020501" d="M 1018.773438 432.039062 C 1019.019531 427.179688 1019.054688 422.285156 1018.878906 417.355469 C 1018.726562 417.472656 1018.621094 417.613281 1018.5625 417.78125 C 1015.109375 422.050781 1010.789062 425.136719 1005.601562 427.039062 C 993.503906 430.746094 981.328125 431.027344 969.0625 427.890625 C 953.773438 423.097656 946.199219 412.636719 946.332031 396.5 C 946.277344 380.488281 953.855469 370.097656 969.0625 365.324219 C 977.941406 363.023438 986.933594 362.457031 996.042969 363.621094 C 1000.660156 364.238281 1005.050781 365.589844 1009.214844 367.664062 C 1012.636719 370.238281 1015.785156 373.113281 1018.667969 376.28125 C 1018.773438 372.59375 1018.808594 368.90625 1018.773438 365.214844 C 1022.242188 365.214844 1025.714844 365.214844 1029.183594 365.214844 C 1029.21875 387.84375 1029.183594 410.472656 1029.078125 433.101562 C 1028.046875 443.496094 1022.769531 450.765625 1013.25 454.917969 C 1007.445312 457.167969 1001.425781 458.445312 995.191406 458.746094 C 986.632812 459.265625 978.132812 458.769531 969.699219 457.257812 C 958.34375 455.246094 951.6875 448.578125 949.730469 437.253906 C 953.308594 436.9375 956.921875 436.832031 960.566406 436.933594 C 961.261719 441.0625 963.105469 444.574219 966.089844 447.46875 C 970.375 450.105469 975.046875 451.59375 980.109375 451.9375 C 986.570312 452.46875 993.015625 452.328125 999.441406 451.511719 C 1010.675781 449.726562 1017.121094 443.238281 1018.773438 432.039062 Z M 983.933594 370.324219 C 990.929688 369.777344 997.730469 370.664062 1004.328125 372.984375 C 1013.972656 377.617188 1018.789062 385.347656 1018.773438 396.179688 C 1018.726562 409.917969 1012.070312 418.5 998.804688 421.929688 C 990.761719 423.476562 982.761719 423.265625 974.796875 421.292969 C 965.542969 418.761719 959.84375 412.839844 957.695312 403.523438 C 956.242188 396.414062 957.089844 389.601562 960.246094 383.09375 C 963.816406 377.488281 968.808594 373.761719 975.222656 371.917969 C 978.125 371.199219 981.027344 370.667969 983.933594 370.324219 Z M 983.933594 370.324219 " fill-opacity="1" fill-rule="evenodd"/><path fill="#010400" d="M 1050.851562 395.859375 C 1050.640625 407.53125 1050.570312 419.234375 1050.640625 430.976562 C 1047.308594 430.976562 1043.984375 430.976562 1040.65625 430.976562 C 1040.65625 409.125 1040.65625 387.277344 1040.65625 365.429688 C 1043.984375 365.429688 1047.308594 365.429688 1050.640625 365.429688 C 1050.640625 369.332031 1050.640625 373.230469 1050.640625 377.132812 C 1051.414062 377.207031 1051.769531 376.851562 1051.699219 376.070312 C 1054.445312 368.960938 1059.613281 364.882812 1067.210938 363.832031 C 1068.902344 363.558594 1070.601562 363.347656 1072.308594 363.195312 C 1076.414062 363.089844 1080.519531 363.050781 1084.628906 363.089844 C 1084.699219 366.070312 1084.628906 369.050781 1084.417969 372.027344 C 1077.652344 370.652344 1070.996094 371.042969 1064.449219 373.195312 C 1057.425781 376.296875 1053.210938 381.652344 1051.808594 389.265625 C 1051.378906 391.453125 1051.058594 393.652344 1050.851562 395.859375 Z M 1050.851562 395.859375 " fill-opacity="1" fill-rule="evenodd"/><path fill="#020502" d="M 1167.054688 397.351562 C 1167.054688 398.203125 1167.054688 399.054688 1167.054688 399.90625 C 1142.695312 399.90625 1118.335938 399.90625 1093.976562 399.90625 C 1093.917969 400.3125 1093.988281 400.667969 1094.1875 400.96875 C 1095.144531 412.8125 1101.234375 420.652344 1112.457031 424.484375 C 1120.460938 426.71875 1128.535156 427.003906 1136.675781 425.335938 C 1145.453125 423.3125 1151.402344 418.097656 1154.519531 409.695312 C 1158.242188 409.625 1161.921875 409.695312 1165.566406 409.90625 C 1163.257812 417.898438 1158.441406 423.894531 1151.121094 427.890625 C 1141.695312 432.289062 1131.78125 434.0625 1121.382812 433.210938 C 1113.695312 432.867188 1106.472656 430.878906 1099.710938 427.25 C 1088.8125 420.417969 1083.359375 410.523438 1083.355469 397.5625 C 1083.59375 382.757812 1090.460938 372.4375 1103.960938 366.597656 C 1112.769531 363.539062 1121.835938 362.402344 1131.152344 363.195312 C 1138.417969 363.523438 1145.214844 365.4375 1151.546875 368.941406 C 1161.648438 375.640625 1166.816406 385.109375 1167.054688 397.351562 Z M 1121.167969 369.683594 C 1127.6875 369.117188 1133.988281 370.003906 1140.074219 372.34375 C 1146.054688 375.003906 1150.691406 379.152344 1153.992188 384.792969 C 1155.496094 387.65625 1156.238281 390.707031 1156.222656 393.945312 C 1135.542969 394.015625 1114.867188 393.945312 1094.1875 393.734375 C 1095.324219 386.988281 1098.296875 381.242188 1103.109375 376.496094 C 1108.503906 372.542969 1114.523438 370.273438 1121.167969 369.683594 Z M 1121.167969 369.683594 " fill-opacity="1" fill-rule="evenodd"/><path fill="#1b2024" d="M 938.046875 372.027344 C 932.804688 372.027344 927.566406 372.027344 922.324219 372.027344 C 922.324219 387.066406 922.324219 402.101562 922.324219 417.140625 C 922.113281 402.070312 922.042969 386.957031 922.113281 371.8125 C 927.460938 371.742188 932.773438 371.8125 938.046875 372.027344 Z M 938.046875 372.027344 " fill-opacity="0.862" fill-rule="evenodd"/><path fill="#1e1e20" d="M 898.746094 371.8125 C 903.207031 371.8125 907.667969 371.8125 912.128906 371.8125 C 912.128906 387.773438 912.128906 403.734375 912.128906 419.695312 C 911.917969 403.84375 911.847656 387.953125 911.917969 372.027344 C 907.488281 372.097656 903.097656 372.023438 898.746094 371.8125 Z M 898.746094 371.8125 " fill-opacity="0.4" fill-rule="evenodd"/><path fill="#1c1d20" d="M 1051.699219 376.070312 C 1051.769531 376.851562 1051.414062 377.207031 1050.640625 377.132812 C 1050.640625 373.230469 1050.640625 369.332031 1050.640625 365.429688 C 1047.308594 365.429688 1043.984375 365.429688 1040.65625 365.429688 C 1040.65625 387.277344 1040.65625 409.125 1040.65625 430.976562 C 1043.984375 430.976562 1047.308594 430.976562 1050.640625 430.976562 C 1050.570312 419.234375 1050.640625 407.53125 1050.851562 395.859375 C 1050.851562 407.636719 1050.851562 419.414062 1050.851562 431.1875 C 1047.382812 431.1875 1043.910156 431.1875 1040.441406 431.1875 C 1040.441406 409.199219 1040.441406 387.207031 1040.441406 365.214844 C 1043.910156 365.214844 1047.382812 365.214844 1050.851562 365.214844 C 1050.78125 369.121094 1050.851562 373.023438 1051.0625 376.921875 C 1051.28125 376.621094 1051.492188 376.339844 1051.699219 376.070312 Z M 1051.699219 376.070312 " fill-opacity="0.557" fill-rule="evenodd"/><path fill="#191b1d" d="M 653.804688 338.613281 C 653.804688 352.519531 653.804688 366.421875 653.804688 380.324219 C 669.097656 380.324219 684.394531 380.324219 699.691406 380.324219 C 684.359375 380.539062 668.992188 380.609375 653.589844 380.539062 C 653.519531 366.527344 653.589844 352.554688 653.804688 338.613281 Z M 653.804688 338.613281 " fill-opacity="0.114" fill-rule="evenodd"/><path fill="#1c2024" d="M 892.796875 382.667969 C 893.003906 383.402344 893.074219 384.183594 893.007812 385.007812 C 889.398438 385.007812 885.785156 385.007812 882.175781 385.007812 C 882.175781 384.652344 882.175781 384.296875 882.175781 383.945312 C 882.371094 384.171875 882.445312 384.453125 882.386719 384.792969 C 885.855469 384.792969 889.328125 384.792969 892.796875 384.792969 C 892.796875 384.085938 892.796875 383.375 892.796875 382.667969 Z M 892.796875 382.667969 " fill-opacity="0.857" fill-rule="evenodd"/><path fill="#1b2024" d="M 1188.9375 398.203125 C 1184.757812 398.203125 1180.582031 398.203125 1176.402344 398.203125 C 1176.402344 399.621094 1176.402344 401.039062 1176.402344 402.457031 C 1176.191406 401.007812 1176.121094 399.519531 1176.191406 397.988281 C 1180.476562 397.917969 1184.722656 397.988281 1188.9375 398.203125 Z M 1188.9375 398.203125 " fill-opacity="0.86" fill-rule="evenodd"/><path fill="#19191a" d="M 1167.054688 397.351562 C 1167.261719 398.230469 1167.335938 399.152344 1167.269531 400.117188 C 1142.90625 400.117188 1118.550781 400.117188 1094.1875 400.117188 C 1094.1875 400.402344 1094.1875 400.683594 1094.1875 400.96875 C 1093.988281 400.667969 1093.917969 400.3125 1093.976562 399.90625 C 1118.335938 399.90625 1142.695312 399.90625 1167.054688 399.90625 C 1167.054688 399.054688 1167.054688 398.203125 1167.054688 397.351562 Z M 1167.054688 397.351562 " fill-opacity="0.114" fill-rule="evenodd"/><path fill="#202428" d="M 1154.519531 409.695312 C 1158.238281 409.410156 1161.992188 409.410156 1165.78125 409.695312 C 1165.753906 409.824219 1165.683594 409.894531 1165.566406 409.90625 C 1161.921875 409.695312 1158.242188 409.625 1154.519531 409.695312 Z M 1154.519531 409.695312 " fill-opacity="0.251" fill-rule="evenodd"/><path fill="#1c1e21" d="M 641.90625 330.742188 C 641.90625 364.152344 641.90625 397.5625 641.90625 430.976562 C 645.800781 430.976562 649.699219 430.976562 653.589844 430.976562 C 653.589844 416.714844 653.589844 402.457031 653.589844 388.199219 C 669.808594 388.199219 686.023438 388.199219 702.238281 388.199219 C 686.128906 388.414062 669.984375 388.484375 653.804688 388.414062 C 653.804688 402.671875 653.804688 416.929688 653.804688 431.1875 C 649.769531 431.1875 645.730469 431.1875 641.695312 431.1875 C 641.625 397.667969 641.695312 364.1875 641.90625 330.742188 Z M 641.90625 330.742188 " fill-opacity="0.557" fill-rule="evenodd"/><path fill="#1a1d20" d="M 1417.734375 330.527344 C 1420.03125 330.316406 1422.367188 330.246094 1424.742188 330.316406 C 1424.742188 361.03125 1424.742188 391.746094 1424.742188 422.460938 C 1449.667969 422.460938 1474.597656 422.460938 1499.519531 422.460938 C 1499.589844 424.769531 1499.519531 427.039062 1499.308594 429.273438 C 1499.308594 427.074219 1499.308594 424.875 1499.308594 422.675781 C 1474.382812 422.675781 1449.457031 422.675781 1424.53125 422.675781 C 1424.53125 391.960938 1424.53125 361.242188 1424.53125 330.527344 C 1422.265625 330.527344 1420 330.527344 1417.734375 330.527344 Z M 1417.734375 330.527344 " fill-opacity="0.556" fill-rule="evenodd"/><path fill="#1f2225" d="M 1018.773438 432.039062 C 1018.84375 427.25 1018.773438 422.496094 1018.5625 417.78125 C 1018.621094 417.613281 1018.726562 417.472656 1018.878906 417.355469 C 1019.054688 422.285156 1019.019531 427.179688 1018.773438 432.039062 Z M 1018.773438 432.039062 " fill-opacity="0.251" fill-rule="evenodd"/><path fill="#1a2024" d="M 1416.671875 330.527344 C 1415.4375 330.738281 1414.160156 330.808594 1412.847656 330.742188 C 1412.847656 364.152344 1412.847656 397.5625 1412.847656 430.976562 C 1441.597656 430.976562 1470.347656 430.976562 1499.097656 430.976562 C 1499.035156 430.5 1499.105469 430.074219 1499.308594 429.699219 C 1499.308594 430.195312 1499.308594 430.691406 1499.308594 431.1875 C 1470.417969 431.1875 1441.527344 431.1875 1412.632812 431.1875 C 1412.632812 397.632812 1412.632812 364.082031 1412.632812 330.527344 C 1413.980469 330.527344 1415.324219 330.527344 1416.671875 330.527344 Z M 1416.671875 330.527344 " fill-opacity="0.714" fill-rule="evenodd"/><path fill="#040704" d="M 378.476562 133.523438 C 400.054688 133.414062 421.632812 133.523438 443.210938 133.851562 C 471.78125 136.992188 498.425781 145.804688 523.140625 160.289062 C 536.78125 169.089844 548.78125 179.773438 559.140625 192.347656 C 566.234375 204.808594 569.429688 218.25 568.71875 232.664062 C 567.601562 260.167969 562.207031 286.828125 552.535156 312.636719 C 539.015625 350.050781 520.851562 384.859375 498.039062 417.066406 C 498.589844 417.285156 499.140625 417.503906 499.691406 417.726562 C 513.019531 416.214844 526.339844 414.671875 539.652344 413.097656 C 550.566406 412.660156 559.703125 416.40625 567.066406 424.335938 C 572.914062 433.910156 572.691406 443.382812 566.40625 452.753906 C 559.574219 460.25 551.757812 466.527344 542.957031 471.59375 C 518.160156 484.511719 491.738281 490.792969 463.6875 490.429688 C 460.15625 490.144531 456.632812 490.035156 453.121094 490.097656 C 451.988281 503.613281 450.777344 517.164062 449.488281 530.746094 C 447.554688 551.519531 441.390625 570.910156 430.992188 588.910156 C 419.597656 605.800781 404.074219 617.144531 384.421875 622.945312 C 311.367188 645.296875 271.625 618.527344 265.191406 542.644531 C 264.09375 529.667969 263.546875 516.667969 263.539062 503.648438 C 237.171875 512.292969 210.75 512.402344 184.269531 503.976562 C 176.566406 501.394531 169.632812 497.539062 163.460938 492.410156 C 135.15625 508.90625 108.84375 506.15625 84.523438 484.148438 C 74.46875 473.613281 65.773438 462.046875 58.433594 449.449219 C 38.789062 412.515625 23.8125 373.738281 13.515625 333.125 C 7.890625 313.148438 3.707031 292.878906 0.964844 272.320312 C -3.820312 190.75 34.382812 146.359375 115.570312 139.140625 C 152.960938 137.246094 189.621094 141.542969 225.554688 152.027344 C 240.503906 144.839844 256.246094 140.324219 272.785156 138.480469 C 295.621094 136.453125 318.414062 137.003906 341.152344 140.132812 C 353.59375 137.378906 366.03125 135.175781 378.476562 133.523438 Z M 378.476562 133.523438 " fill-opacity="1" fill-rule="evenodd"/><path fill="#fbfcfd" d="M 537.671875 191.023438 C 538.277344 192.734375 539.378906 194.058594 540.976562 194.988281 C 545.476562 199.808594 548.449219 205.535156 549.890625 212.175781 C 552.046875 226.703125 552.046875 241.246094 549.890625 255.796875 C 536.429688 318.929688 509.894531 375.882812 470.292969 426.648438 C 477.324219 430.234375 484.8125 431.667969 492.753906 430.945312 C 506.742188 430.65625 520.613281 429.222656 534.367188 426.648438 C 542.0625 425.175781 548.558594 427.269531 553.855469 432.925781 C 554.832031 438.585938 553.292969 443.429688 549.230469 447.46875 C 532.820312 461.238281 513.996094 469.722656 492.753906 472.914062 C 478.953125 474.984375 465.078125 475.644531 451.136719 474.898438 C 447.890625 474.640625 444.699219 474.089844 441.558594 473.246094 C 441.050781 473.339844 440.609375 473.558594 440.238281 473.90625 C 436.472656 504.925781 431.628906 535.769531 425.707031 566.4375 C 420.234375 586.230469 408.011719 600 389.046875 607.746094 C 369.652344 615.128906 349.617188 617.992188 328.933594 616.335938 C 304.253906 611.03125 288.511719 596.160156 281.703125 571.722656 C 279.230469 557.722656 277.691406 543.621094 277.078125 529.425781 C 276.859375 512.460938 276.640625 495.496094 276.417969 478.53125 C 263.945312 487.832031 249.964844 493.230469 234.472656 494.726562 C 219.1875 496.117188 204.210938 494.574219 189.554688 490.097656 C 184.941406 488.394531 180.648438 486.082031 176.675781 483.160156 C 170.683594 476.753906 171.011719 470.695312 177.664062 464.984375 C 180.707031 462.910156 184.011719 461.367188 187.574219 460.355469 C 199.332031 458.125 211 455.480469 222.582031 452.425781 C 229.222656 448.304688 234.949219 443.125 239.757812 436.894531 C 233.96875 436.503906 228.246094 435.734375 222.582031 434.578125 C 217.9375 433.640625 213.535156 432.097656 209.371094 429.953125 C 208.269531 429.511719 207.171875 429.511719 206.070312 429.953125 C 189.355469 445.574219 172.839844 461.4375 156.527344 477.539062 C 141.066406 490.269531 124.550781 491.8125 106.984375 482.167969 C 102.71875 479.328125 98.753906 476.132812 95.09375 472.582031 C 91.363281 468.078125 87.511719 463.671875 83.535156 459.363281 C 69.109375 437.546875 57.441406 414.195312 48.523438 389.304688 C 34.015625 350.183594 23.449219 310.085938 16.816406 269.015625 C 14.734375 245.476562 18.476562 223.003906 28.046875 201.597656 C 43.425781 175.664062 65.996094 159.910156 95.753906 154.34375 C 101.859375 153.09375 108.023438 152.210938 114.25 151.699219 C 153.035156 149.988281 190.90625 154.726562 227.867188 165.910156 C 242.441406 157.707031 258.078125 152.75 274.769531 151.039062 C 296.058594 149.011719 317.195312 150.003906 338.183594 154.011719 C 378.394531 143.492188 418.910156 142.058594 459.726562 149.714844 C 489.863281 156.085938 515.84375 169.855469 537.671875 191.023438 Z M 537.671875 191.023438 " fill-opacity="1" fill-rule="evenodd"/><path fill="#346790" d="M 391.027344 158.636719 C 415.824219 156.9375 440.265625 159.03125 464.347656 164.917969 C 489.265625 171.785156 510.511719 184.675781 528.09375 203.582031 C 531.949219 208.882812 534.152344 214.828125 534.699219 221.425781 C 535.78125 236.144531 534.679688 250.683594 531.398438 265.050781 C 522.875 301.882812 509.003906 336.25 489.78125 368.15625 C 481.210938 383.953125 471.523438 399.15625 460.714844 413.761719 C 458.78125 412.722656 458.121094 411.179688 458.734375 409.132812 C 468.148438 395.75 472.113281 380.769531 470.625 364.191406 C 468.976562 349.886719 467.542969 335.566406 466.332031 321.230469 C 466.683594 310.722656 468.113281 300.367188 470.625 290.164062 C 471.144531 282.964844 471.695312 275.804688 472.277344 268.683594 C 471.765625 267.09375 471.433594 265.441406 471.285156 263.726562 C 466.777344 250.722656 460.613281 238.605469 452.789062 227.375 C 430.945312 197.132812 402.648438 175.433594 367.90625 162.273438 C 375.59375 160.679688 383.300781 159.46875 391.027344 158.636719 Z M 391.027344 158.636719 " fill-opacity="1" fill-rule="evenodd"/><path fill="#336790" d="M 285.996094 163.265625 C 324.574219 161.675781 360.246094 170.820312 393.007812 190.695312 C 419.355469 208.566406 439.390625 231.808594 453.121094 260.421875 C 441.46875 260.1875 429.796875 260.738281 418.109375 262.074219 C 390.71875 268.070312 379.601562 284.925781 384.75 312.636719 C 388.195312 325.566406 393.039062 337.902344 399.285156 349.648438 C 410.203125 368.296875 421.433594 386.804688 432.972656 405.167969 C 438.214844 412.070312 443.832031 418.679688 449.816406 424.996094 C 437.914062 427.542969 430.097656 434.59375 426.367188 446.144531 C 422.914062 485.964844 417.191406 525.398438 409.191406 564.453125 C 404.648438 579.574219 395.070312 590.039062 380.457031 595.847656 C 364.746094 601.871094 348.453125 604.074219 331.574219 602.457031 C 319.273438 599.839844 309.914062 593.121094 303.503906 582.300781 C 302.761719 579.355469 301.441406 576.714844 299.539062 574.367188 C 296.480469 562.683594 294.71875 550.789062 294.253906 538.675781 C 293.652344 507.816406 292.992188 476.972656 292.273438 446.144531 C 285.636719 431.039062 274.074219 424.207031 257.59375 425.65625 C 259.414062 419.3125 261.726562 413.144531 264.527344 407.152344 C 271.757812 394.003906 277.921875 380.34375 283.023438 366.171875 C 287.847656 339.011719 285.867188 312.355469 277.078125 286.199219 C 270.066406 271.933594 258.507812 264.332031 242.398438 263.398438 C 233.519531 262.730469 224.710938 263.171875 215.976562 264.71875 C 204.726562 267.738281 193.714844 271.261719 182.949219 275.292969 C 184.890625 259.261719 188.746094 243.726562 194.507812 228.699219 C 205.003906 203.4375 222.507812 184.820312 247.023438 172.847656 C 253.367188 170.511719 259.753906 168.308594 266.179688 166.238281 C 272.882812 165.214844 279.488281 164.222656 285.996094 163.265625 Z M 285.996094 163.265625 " fill-opacity="1" fill-rule="evenodd"/><path fill="#336790" d="M 118.214844 164.585938 C 133.445312 164.230469 148.636719 164.78125 163.792969 166.238281 C 174.300781 168.472656 184.871094 170.457031 195.5 172.1875 C 201.328125 173.3125 207.050781 174.855469 212.675781 176.8125 C 192.867188 194.53125 179.546875 216.234375 172.710938 241.917969 C 169.339844 254.683594 167.140625 267.683594 166.105469 280.910156 C 166.945312 298.738281 167.167969 316.585938 166.765625 334.449219 C 166.144531 344.964844 165.152344 355.429688 163.792969 365.84375 C 164.699219 388.882812 174.386719 407.28125 192.859375 421.03125 C 176.480469 436.644531 160.1875 452.394531 143.976562 468.289062 C 134.246094 476.359375 124.339844 476.582031 114.25 468.949219 C 105.226562 461.132812 97.519531 452.210938 91.132812 442.179688 C 77.984375 418.683594 67.085938 394.230469 58.433594 368.816406 C 50.125 343.601562 43.078125 318.046875 37.296875 292.148438 C 35.558594 283.390625 34.238281 274.578125 33.332031 265.710938 C 29.808594 205.03125 58.101562 171.324219 118.214844 164.585938 Z M 118.214844 164.585938 " fill-opacity="1" fill-rule="evenodd"/><path fill="#879099" d="M 537.671875 191.023438 C 539.265625 191.957031 540.367188 193.277344 540.976562 194.988281 C 539.378906 194.058594 538.277344 192.734375 537.671875 191.023438 Z M 537.671875 191.023438 " fill-opacity="1" fill-rule="evenodd"/><path fill="#356890" d="M 425.375 274.964844 C 435.097656 274.753906 444.785156 274.972656 454.441406 275.625 C 455.207031 278.242188 455.316406 280.882812 454.769531 283.554688 C 451.238281 299.472656 449.699219 315.554688 450.148438 331.804688 C 453.082031 346.199219 454.40625 360.738281 454.109375 375.425781 C 453.242188 379.816406 452.363281 384.21875 451.46875 388.644531 C 450.375 391.714844 448.945312 394.578125 447.175781 397.238281 C 444.140625 391.660156 440.949219 386.152344 437.597656 380.714844 C 425.007812 363.628906 414.4375 345.339844 405.890625 325.855469 C 404.113281 319.679688 402.351562 313.511719 400.605469 307.347656 C 397.1875 292.707031 402.359375 282.683594 416.128906 277.277344 C 419.367188 276.773438 422.449219 276.003906 425.375 274.964844 Z M 425.375 274.964844 " fill-opacity="1" fill-rule="evenodd"/><path fill="#346790" d="M 227.207031 276.945312 C 233.40625 276.738281 239.570312 277.066406 245.703125 277.9375 C 254.839844 280.46875 260.675781 286.308594 263.207031 295.453125 C 268.117188 312.738281 270.101562 330.363281 269.152344 348.328125 C 267.914062 358.851562 265.273438 368.988281 261.226562 378.730469 C 255.863281 388.089844 251.019531 397.785156 246.695312 407.8125 C 244.835938 412.617188 243.183594 417.464844 241.738281 422.351562 C 214.992188 421.691406 195.726562 409.355469 183.941406 385.339844 C 180.925781 377.234375 179.828125 368.863281 180.636719 360.222656 C 181.828125 352.546875 182.707031 344.835938 183.28125 337.089844 C 183.582031 322.324219 183.582031 307.5625 183.28125 292.808594 C 196.839844 284.578125 211.480469 279.289062 227.207031 276.945312 Z M 227.207031 276.945312 " fill-opacity="1" fill-rule="evenodd"/><path fill="#fbfcfd" d="M 421.414062 281.574219 C 426.964844 281.328125 432.46875 281.660156 437.925781 282.5625 C 439.714844 283.796875 440.265625 285.449219 439.578125 287.519531 C 433.429688 295.886719 425.613281 297.761719 416.128906 293.140625 C 414.410156 291.753906 413.085938 290.101562 412.164062 288.183594 C 412.335938 287.066406 412.777344 286.074219 413.484375 285.207031 C 416.222656 284.046875 418.867188 282.832031 421.414062 281.574219 Z M 421.414062 281.574219 " fill-opacity="1" fill-rule="evenodd"/><path fill="#fbfcfd" d="M 230.511719 284.878906 C 236.261719 284.746094 241.988281 285.074219 247.683594 285.867188 C 257.675781 289.652344 258.113281 294.28125 249.003906 299.75 C 239.132812 303.566406 231.316406 301.03125 225.554688 292.148438 C 225.089844 290.515625 225.308594 288.972656 226.214844 287.519531 C 227.746094 286.707031 229.175781 285.824219 230.511719 284.878906 Z M 230.511719 284.878906 " fill-opacity="1" fill-rule="evenodd"/><path fill="#386a92" d="M 457.082031 437.554688 C 462.21875 439.230469 467.28125 441.101562 472.277344 443.171875 C 485.21875 444.78125 498.210938 445.222656 511.25 444.492188 C 518.277344 443.238281 525.320312 442.355469 532.386719 441.851562 C 514.644531 454.335938 494.824219 460.726562 472.9375 461.015625 C 466.773438 461.457031 460.605469 461.457031 454.441406 461.015625 C 450.316406 460.808594 446.355469 459.925781 442.550781 458.375 C 440.640625 446.65625 445.484375 439.714844 457.082031 437.554688 Z M 457.082031 437.554688 " fill-opacity="1" fill-rule="evenodd"/><path fill="#366891" d="M 260.234375 439.535156 C 269.4375 439.601562 274.941406 444.121094 276.75 453.085938 C 276.839844 455.796875 275.957031 458.109375 274.105469 460.027344 C 256.441406 477.839844 235.085938 484.558594 210.03125 480.183594 C 203.414062 479.679688 197.25 477.804688 191.535156 474.566406 C 202.238281 471.828125 213.027344 469.292969 223.902344 466.964844 C 228.273438 465.582031 232.457031 463.820312 236.453125 461.679688 C 244.179688 453.992188 252.105469 446.613281 260.234375 439.535156 Z M 260.234375 439.535156 " fill-opacity="1" fill-rule="evenodd"/></svg>