<svg xmlns="http://www.w3.org/2000/svg" xmlns:xlink="http://www.w3.org/1999/xlink" width="2000" zoomAndPan="magnify" viewBox="0 0 1500 749.999995" height="1000" preserveAspectRatio="xMidYMid meet" version="1.0"><defs><clipPath id="2599268c9c"><path d="M 3 136 L 354 136 L 354 489 L 3 489 Z M 3 136 " clip-rule="nonzero"/></clipPath><clipPath id="d6444aae99"><path d="M 237.023438 136.089844 C 217.570312 136.179688 198.996094 137.835938 182.65625 140.734375 C 134.507812 149.246094 125.769531 167.054688 125.769531 199.902344 L 125.769531 243.285156 L 239.542969 243.285156 L 239.542969 257.742188 L 83.066406 257.742188 C 50 257.742188 21.042969 277.628906 11.988281 315.453125 C 1.542969 358.808594 1.078125 385.863281 11.988281 431.132812 C 20.078125 464.832031 39.394531 488.84375 72.457031 488.84375 L 111.578125 488.84375 L 111.578125 436.839844 C 111.578125 399.269531 144.070312 366.132812 182.65625 366.132812 L 296.300781 366.132812 C 327.933594 366.132812 353.1875 340.074219 353.1875 308.289062 L 353.1875 199.898438 C 353.1875 169.050781 327.175781 145.878906 296.300781 140.730469 C 276.75 137.476562 256.476562 135.996094 237.023438 136.089844 Z M 175.492188 170.976562 C 187.246094 170.976562 196.84375 180.734375 196.84375 192.730469 C 196.84375 204.6875 187.242188 214.355469 175.492188 214.355469 C 163.699219 214.355469 154.144531 204.691406 154.144531 192.730469 C 154.144531 180.734375 163.699219 170.976562 175.492188 170.976562 Z M 175.492188 170.976562 " clip-rule="nonzero"/></clipPath><linearGradient x1="-2032.105414" gradientTransform="matrix(2.386943, 0, 0, -2.411268, 4841.382771, 814.826732)" y1="276.550631" x2="-1874.991024" gradientUnits="userSpaceOnUse" y2="141.375689" id="6e38d55030"><stop stop-opacity="1" stop-color="rgb(35.289001%, 62.348938%, 83.139038%)" offset="0"/><stop stop-opacity="1" stop-color="rgb(35.163879%, 62.187195%, 82.958984%)" offset="0.015625"/><stop stop-opacity="1" stop-color="rgb(34.945679%, 61.907959%, 82.647705%)" offset="0.0234375"/><stop stop-opacity="1" stop-color="rgb(34.759521%, 61.668396%, 82.382202%)" offset="0.03125"/><stop stop-opacity="1" stop-color="rgb(34.57489%, 61.430359%, 82.118225%)" offset="0.0390625"/><stop stop-opacity="1" stop-color="rgb(34.388733%, 61.192322%, 81.852722%)" offset="0.046875"/><stop stop-opacity="1" stop-color="rgb(34.204102%, 60.954285%, 81.588745%)" offset="0.0546875"/><stop stop-opacity="1" stop-color="rgb(34.017944%, 60.714722%, 81.323242%)" offset="0.0625"/><stop stop-opacity="1" stop-color="rgb(33.831787%, 60.476685%, 81.057739%)" offset="0.0703125"/><stop stop-opacity="1" stop-color="rgb(33.647156%, 60.238647%, 80.793762%)" offset="0.078125"/><stop stop-opacity="1" stop-color="rgb(33.460999%, 60.00061%, 80.528259%)" offset="0.0859375"/><stop stop-opacity="1" stop-color="rgb(33.276367%, 59.762573%, 80.262756%)" offset="0.09375"/><stop stop-opacity="1" stop-color="rgb(33.09021%, 59.52301%, 79.998779%)" offset="0.101563"/><stop stop-opacity="1" stop-color="rgb(32.905579%, 59.284973%, 79.733276%)" offset="0.109375"/><stop stop-opacity="1" stop-color="rgb(32.719421%, 59.046936%, 79.469299%)" offset="0.117188"/><stop stop-opacity="1" stop-color="rgb(32.53479%, 58.808899%, 79.203796%)" offset="0.125"/><stop stop-opacity="1" stop-color="rgb(32.348633%, 58.570862%, 78.938293%)" offset="0.132812"/><stop stop-opacity="1" stop-color="rgb(32.164001%, 58.331299%, 78.674316%)" offset="0.140625"/><stop stop-opacity="1" stop-color="rgb(31.977844%, 58.093262%, 78.408813%)" offset="0.148438"/><stop stop-opacity="1" stop-color="rgb(31.793213%, 57.855225%, 78.143311%)" offset="0.15625"/><stop stop-opacity="1" stop-color="rgb(31.607056%, 57.617188%, 77.879333%)" offset="0.164062"/><stop stop-opacity="1" stop-color="rgb(31.422424%, 57.377625%, 77.613831%)" offset="0.171875"/><stop stop-opacity="1" stop-color="rgb(31.236267%, 57.139587%, 77.349854%)" offset="0.179687"/><stop stop-opacity="1" stop-color="rgb(31.05011%, 56.90155%, 77.084351%)" offset="0.1875"/><stop stop-opacity="1" stop-color="rgb(30.865479%, 56.663513%, 76.818848%)" offset="0.195312"/><stop stop-opacity="1" stop-color="rgb(30.679321%, 56.425476%, 76.554871%)" offset="0.203125"/><stop stop-opacity="1" stop-color="rgb(30.49469%, 56.185913%, 76.289368%)" offset="0.210937"/><stop stop-opacity="1" stop-color="rgb(30.308533%, 55.947876%, 76.023865%)" offset="0.21875"/><stop stop-opacity="1" stop-color="rgb(30.123901%, 55.709839%, 75.759888%)" offset="0.226562"/><stop stop-opacity="1" stop-color="rgb(29.937744%, 55.471802%, 75.494385%)" offset="0.234375"/><stop stop-opacity="1" stop-color="rgb(29.753113%, 55.233765%, 75.230408%)" offset="0.242188"/><stop stop-opacity="1" stop-color="rgb(29.566956%, 54.994202%, 74.964905%)" offset="0.25"/><stop stop-opacity="1" stop-color="rgb(29.382324%, 54.756165%, 74.699402%)" offset="0.257812"/><stop stop-opacity="1" stop-color="rgb(29.196167%, 54.518127%, 74.435425%)" offset="0.265625"/><stop stop-opacity="1" stop-color="rgb(29.011536%, 54.28009%, 74.169922%)" offset="0.273438"/><stop stop-opacity="1" stop-color="rgb(28.825378%, 54.042053%, 73.904419%)" offset="0.28125"/><stop stop-opacity="1" stop-color="rgb(28.640747%, 53.80249%, 73.640442%)" offset="0.289062"/><stop stop-opacity="1" stop-color="rgb(28.45459%, 53.564453%, 73.374939%)" offset="0.296875"/><stop stop-opacity="1" stop-color="rgb(28.269958%, 53.326416%, 73.110962%)" offset="0.304688"/><stop stop-opacity="1" stop-color="rgb(28.083801%, 53.088379%, 72.845459%)" offset="0.3125"/><stop stop-opacity="1" stop-color="rgb(27.897644%, 52.848816%, 72.579956%)" offset="0.320312"/><stop stop-opacity="1" stop-color="rgb(27.713013%, 52.610779%, 72.315979%)" offset="0.328125"/><stop stop-opacity="1" stop-color="rgb(27.526855%, 52.372742%, 72.050476%)" offset="0.335938"/><stop stop-opacity="1" stop-color="rgb(27.342224%, 52.134705%, 71.784973%)" offset="0.34375"/><stop stop-opacity="1" stop-color="rgb(27.156067%, 51.896667%, 71.520996%)" offset="0.351562"/><stop stop-opacity="1" stop-color="rgb(26.971436%, 51.657104%, 71.255493%)" offset="0.359375"/><stop stop-opacity="1" stop-color="rgb(26.785278%, 51.419067%, 70.991516%)" offset="0.367188"/><stop stop-opacity="1" stop-color="rgb(26.600647%, 51.18103%, 70.726013%)" offset="0.375"/><stop stop-opacity="1" stop-color="rgb(26.41449%, 50.942993%, 70.46051%)" offset="0.382812"/><stop stop-opacity="1" stop-color="rgb(26.229858%, 50.704956%, 70.196533%)" offset="0.390625"/><stop stop-opacity="1" stop-color="rgb(26.043701%, 50.465393%, 69.93103%)" offset="0.398438"/><stop stop-opacity="1" stop-color="rgb(25.85907%, 50.227356%, 69.665527%)" offset="0.40625"/><stop stop-opacity="1" stop-color="rgb(25.672913%, 49.989319%, 69.40155%)" offset="0.414063"/><stop stop-opacity="1" stop-color="rgb(25.488281%, 49.751282%, 69.136047%)" offset="0.421875"/><stop stop-opacity="1" stop-color="rgb(25.302124%, 49.511719%, 68.870544%)" offset="0.429688"/><stop stop-opacity="1" stop-color="rgb(25.115967%, 49.273682%, 68.606567%)" offset="0.4375"/><stop stop-opacity="1" stop-color="rgb(24.931335%, 49.035645%, 68.341064%)" offset="0.445313"/><stop stop-opacity="1" stop-color="rgb(24.745178%, 48.797607%, 68.077087%)" offset="0.453125"/><stop stop-opacity="1" stop-color="rgb(24.560547%, 48.55957%, 67.811584%)" offset="0.46047"/><stop stop-opacity="1" stop-color="rgb(24.467468%, 48.440552%, 67.678833%)" offset="0.460938"/><stop stop-opacity="1" stop-color="rgb(24.37439%, 48.320007%, 67.546082%)" offset="0.46875"/><stop stop-opacity="1" stop-color="rgb(24.189758%, 48.08197%, 67.282104%)" offset="0.476563"/><stop stop-opacity="1" stop-color="rgb(24.003601%, 47.843933%, 67.016602%)" offset="0.484375"/><stop stop-opacity="1" stop-color="rgb(23.81897%, 47.605896%, 66.751099%)" offset="0.492188"/><stop stop-opacity="1" stop-color="rgb(23.632812%, 47.367859%, 66.487122%)" offset="0.5"/><stop stop-opacity="1" stop-color="rgb(23.448181%, 47.128296%, 66.221619%)" offset="0.507813"/><stop stop-opacity="1" stop-color="rgb(23.262024%, 46.890259%, 65.957642%)" offset="0.515625"/><stop stop-opacity="1" stop-color="rgb(23.077393%, 46.652222%, 65.692139%)" offset="0.523438"/><stop stop-opacity="1" stop-color="rgb(22.891235%, 46.414185%, 65.426636%)" offset="0.53125"/><stop stop-opacity="1" stop-color="rgb(22.706604%, 46.174622%, 65.162659%)" offset="0.539063"/><stop stop-opacity="1" stop-color="rgb(22.520447%, 45.936584%, 64.897156%)" offset="0.53953"/><stop stop-opacity="1" stop-color="rgb(22.427368%, 45.817566%, 64.764404%)" offset="0.546875"/><stop stop-opacity="1" stop-color="rgb(22.33429%, 45.698547%, 64.631653%)" offset="0.554688"/><stop stop-opacity="1" stop-color="rgb(22.149658%, 45.46051%, 64.367676%)" offset="0.5625"/><stop stop-opacity="1" stop-color="rgb(21.963501%, 45.222473%, 64.102173%)" offset="0.570313"/><stop stop-opacity="1" stop-color="rgb(21.77887%, 44.98291%, 63.838196%)" offset="0.578125"/><stop stop-opacity="1" stop-color="rgb(21.592712%, 44.744873%, 63.572693%)" offset="0.585938"/><stop stop-opacity="1" stop-color="rgb(21.408081%, 44.506836%, 63.30719%)" offset="0.59375"/><stop stop-opacity="1" stop-color="rgb(21.221924%, 44.268799%, 63.043213%)" offset="0.601563"/><stop stop-opacity="1" stop-color="rgb(21.037292%, 44.030762%, 62.77771%)" offset="0.609375"/><stop stop-opacity="1" stop-color="rgb(20.851135%, 43.791199%, 62.512207%)" offset="0.617188"/><stop stop-opacity="1" stop-color="rgb(20.666504%, 43.553162%, 62.24823%)" offset="0.625"/><stop stop-opacity="1" stop-color="rgb(20.480347%, 43.315125%, 61.982727%)" offset="0.632813"/><stop stop-opacity="1" stop-color="rgb(20.295715%, 43.077087%, 61.71875%)" offset="0.640625"/><stop stop-opacity="1" stop-color="rgb(20.109558%, 42.83905%, 61.453247%)" offset="0.648438"/><stop stop-opacity="1" stop-color="rgb(19.924927%, 42.599487%, 61.187744%)" offset="0.65625"/><stop stop-opacity="1" stop-color="rgb(19.73877%, 42.36145%, 60.923767%)" offset="0.664063"/><stop stop-opacity="1" stop-color="rgb(19.554138%, 42.123413%, 60.658264%)" offset="0.671875"/><stop stop-opacity="1" stop-color="rgb(19.367981%, 41.885376%, 60.392761%)" offset="0.679688"/><stop stop-opacity="1" stop-color="rgb(19.181824%, 41.645813%, 60.128784%)" offset="0.6875"/><stop stop-opacity="1" stop-color="rgb(18.954468%, 41.352844%, 59.802246%)" offset="0.75"/><stop stop-opacity="1" stop-color="rgb(18.818665%, 41.178894%, 59.609985%)" offset="1"/></linearGradient><clipPath id="95ff55ab21"><path d="M 125 257 L 476 257 L 476 614 L 125 614 Z M 125 257 " clip-rule="nonzero"/></clipPath><clipPath id="90fc863aec"><path d="M 367.378906 257.738281 L 367.378906 308.28125 C 367.378906 347.46875 334.167969 380.449219 296.300781 380.449219 L 182.65625 380.449219 C 151.527344 380.449219 125.769531 407.101562 125.769531 438.292969 L 125.769531 546.675781 C 125.769531 577.523438 152.578125 595.667969 182.65625 604.515625 C 218.671875 615.113281 253.207031 617.027344 296.300781 604.515625 C 324.941406 596.21875 353.1875 579.519531 353.1875 546.675781 L 353.1875 503.296875 L 239.542969 503.296875 L 239.542969 488.839844 L 410.074219 488.839844 C 443.144531 488.839844 455.464844 465.761719 466.964844 431.128906 C 478.84375 395.476562 478.339844 361.1875 466.964844 315.449219 C 458.789062 282.519531 443.183594 257.738281 410.074219 257.738281 Z M 303.457031 532.214844 C 315.25 532.214844 324.808594 541.882812 324.808594 553.839844 C 324.808594 565.835938 315.25 575.597656 303.457031 575.597656 C 291.703125 575.597656 282.109375 565.835938 282.109375 553.839844 C 282.109375 541.886719 291.707031 532.214844 303.457031 532.214844 Z M 303.457031 532.214844 " clip-rule="nonzero"/></clipPath><linearGradient x1="-1842.271071" gradientTransform="matrix(2.386943, 0, 0, -2.411268, 4841.382771, 814.826732)" y1="71.710287" x2="-1961.778061" gradientUnits="userSpaceOnUse" y2="240.795685" id="50b344c736"><stop stop-opacity="1" stop-color="rgb(100%, 83.139038%, 23.139954%)" offset="0"/><stop stop-opacity="1" stop-color="rgb(100%, 83.139038%, 23.139954%)" offset="0.25"/><stop stop-opacity="1" stop-color="rgb(100%, 83.139038%, 23.139954%)" offset="0.3125"/><stop stop-opacity="1" stop-color="rgb(100%, 83.178711%, 23.251343%)" offset="0.320312"/><stop stop-opacity="1" stop-color="rgb(100%, 83.312988%, 23.626709%)" offset="0.324219"/><stop stop-opacity="1" stop-color="rgb(100%, 83.407593%, 23.890686%)" offset="0.328125"/><stop stop-opacity="1" stop-color="rgb(100%, 83.500671%, 24.154663%)" offset="0.332031"/><stop stop-opacity="1" stop-color="rgb(100%, 83.595276%, 24.41864%)" offset="0.335938"/><stop stop-opacity="1" stop-color="rgb(100%, 83.68988%, 24.681091%)" offset="0.339844"/><stop stop-opacity="1" stop-color="rgb(100%, 83.784485%, 24.945068%)" offset="0.34375"/><stop stop-opacity="1" stop-color="rgb(100%, 83.877563%, 25.20752%)" offset="0.347656"/><stop stop-opacity="1" stop-color="rgb(100%, 83.972168%, 25.471497%)" offset="0.351563"/><stop stop-opacity="1" stop-color="rgb(100%, 84.065247%, 25.733948%)" offset="0.355469"/><stop stop-opacity="1" stop-color="rgb(100%, 84.159851%, 25.997925%)" offset="0.359375"/><stop stop-opacity="1" stop-color="rgb(100%, 84.25293%, 26.260376%)" offset="0.363281"/><stop stop-opacity="1" stop-color="rgb(100%, 84.347534%, 26.524353%)" offset="0.367188"/><stop stop-opacity="1" stop-color="rgb(100%, 84.440613%, 26.786804%)" offset="0.371094"/><stop stop-opacity="1" stop-color="rgb(100%, 84.535217%, 27.050781%)" offset="0.375"/><stop stop-opacity="1" stop-color="rgb(100%, 84.629822%, 27.314758%)" offset="0.378906"/><stop stop-opacity="1" stop-color="rgb(100%, 84.724426%, 27.578735%)" offset="0.382813"/><stop stop-opacity="1" stop-color="rgb(100%, 84.817505%, 27.841187%)" offset="0.386719"/><stop stop-opacity="1" stop-color="rgb(100%, 84.912109%, 28.105164%)" offset="0.390625"/><stop stop-opacity="1" stop-color="rgb(100%, 85.005188%, 28.367615%)" offset="0.394531"/><stop stop-opacity="1" stop-color="rgb(100%, 85.099792%, 28.631592%)" offset="0.398438"/><stop stop-opacity="1" stop-color="rgb(100%, 85.192871%, 28.894043%)" offset="0.402344"/><stop stop-opacity="1" stop-color="rgb(100%, 85.287476%, 29.15802%)" offset="0.40625"/><stop stop-opacity="1" stop-color="rgb(100%, 85.38208%, 29.420471%)" offset="0.410156"/><stop stop-opacity="1" stop-color="rgb(100%, 85.476685%, 29.684448%)" offset="0.414063"/><stop stop-opacity="1" stop-color="rgb(100%, 85.569763%, 29.946899%)" offset="0.417969"/><stop stop-opacity="1" stop-color="rgb(100%, 85.664368%, 30.210876%)" offset="0.421875"/><stop stop-opacity="1" stop-color="rgb(100%, 85.757446%, 30.474854%)" offset="0.425781"/><stop stop-opacity="1" stop-color="rgb(100%, 85.852051%, 30.738831%)" offset="0.429688"/><stop stop-opacity="1" stop-color="rgb(100%, 85.945129%, 31.001282%)" offset="0.433594"/><stop stop-opacity="1" stop-color="rgb(100%, 86.039734%, 31.265259%)" offset="0.4375"/><stop stop-opacity="1" stop-color="rgb(100%, 86.134338%, 31.52771%)" offset="0.441406"/><stop stop-opacity="1" stop-color="rgb(100%, 86.228943%, 31.791687%)" offset="0.445313"/><stop stop-opacity="1" stop-color="rgb(100%, 86.322021%, 32.054138%)" offset="0.449219"/><stop stop-opacity="1" stop-color="rgb(100%, 86.416626%, 32.318115%)" offset="0.453125"/><stop stop-opacity="1" stop-color="rgb(100%, 86.509705%, 32.580566%)" offset="0.457031"/><stop stop-opacity="1" stop-color="rgb(100%, 86.604309%, 32.844543%)" offset="0.460938"/><stop stop-opacity="1" stop-color="rgb(100%, 86.697388%, 33.106995%)" offset="0.464844"/><stop stop-opacity="1" stop-color="rgb(100%, 86.791992%, 33.370972%)" offset="0.46875"/><stop stop-opacity="1" stop-color="rgb(100%, 86.885071%, 33.634949%)" offset="0.472656"/><stop stop-opacity="1" stop-color="rgb(100%, 86.979675%, 33.898926%)" offset="0.476563"/><stop stop-opacity="1" stop-color="rgb(100%, 87.07428%, 34.161377%)" offset="0.480469"/><stop stop-opacity="1" stop-color="rgb(100%, 87.168884%, 34.425354%)" offset="0.484375"/><stop stop-opacity="1" stop-color="rgb(100%, 87.261963%, 34.687805%)" offset="0.488281"/><stop stop-opacity="1" stop-color="rgb(100%, 87.356567%, 34.951782%)" offset="0.492188"/><stop stop-opacity="1" stop-color="rgb(100%, 87.449646%, 35.214233%)" offset="0.496094"/><stop stop-opacity="1" stop-color="rgb(100%, 87.54425%, 35.47821%)" offset="0.5"/><stop stop-opacity="1" stop-color="rgb(100%, 87.637329%, 35.740662%)" offset="0.503906"/><stop stop-opacity="1" stop-color="rgb(100%, 87.731934%, 36.004639%)" offset="0.507812"/><stop stop-opacity="1" stop-color="rgb(100%, 87.826538%, 36.26709%)" offset="0.511719"/><stop stop-opacity="1" stop-color="rgb(100%, 87.921143%, 36.531067%)" offset="0.515625"/><stop stop-opacity="1" stop-color="rgb(100%, 88.014221%, 36.793518%)" offset="0.519531"/><stop stop-opacity="1" stop-color="rgb(100%, 88.108826%, 37.057495%)" offset="0.523438"/><stop stop-opacity="1" stop-color="rgb(100%, 88.201904%, 37.321472%)" offset="0.527344"/><stop stop-opacity="1" stop-color="rgb(100%, 88.296509%, 37.585449%)" offset="0.53125"/><stop stop-opacity="1" stop-color="rgb(100%, 88.389587%, 37.8479%)" offset="0.535156"/><stop stop-opacity="1" stop-color="rgb(100%, 88.484192%, 38.111877%)" offset="0.539062"/><stop stop-opacity="1" stop-color="rgb(100%, 88.577271%, 38.374329%)" offset="0.542969"/><stop stop-opacity="1" stop-color="rgb(100%, 88.671875%, 38.638306%)" offset="0.546875"/><stop stop-opacity="1" stop-color="rgb(100%, 88.766479%, 38.900757%)" offset="0.550781"/><stop stop-opacity="1" stop-color="rgb(100%, 88.861084%, 39.164734%)" offset="0.554688"/><stop stop-opacity="1" stop-color="rgb(100%, 88.954163%, 39.427185%)" offset="0.558594"/><stop stop-opacity="1" stop-color="rgb(100%, 89.048767%, 39.691162%)" offset="0.5625"/><stop stop-opacity="1" stop-color="rgb(100%, 89.141846%, 39.953613%)" offset="0.566406"/><stop stop-opacity="1" stop-color="rgb(100%, 89.23645%, 40.21759%)" offset="0.570312"/><stop stop-opacity="1" stop-color="rgb(100%, 89.329529%, 40.481567%)" offset="0.574219"/><stop stop-opacity="1" stop-color="rgb(100%, 89.424133%, 40.745544%)" offset="0.578125"/><stop stop-opacity="1" stop-color="rgb(100%, 89.518738%, 41.007996%)" offset="0.582031"/><stop stop-opacity="1" stop-color="rgb(100%, 89.613342%, 41.271973%)" offset="0.585938"/><stop stop-opacity="1" stop-color="rgb(100%, 89.706421%, 41.534424%)" offset="0.589844"/><stop stop-opacity="1" stop-color="rgb(100%, 89.801025%, 41.798401%)" offset="0.59375"/><stop stop-opacity="1" stop-color="rgb(100%, 89.894104%, 42.060852%)" offset="0.597656"/><stop stop-opacity="1" stop-color="rgb(100%, 89.988708%, 42.324829%)" offset="0.601562"/><stop stop-opacity="1" stop-color="rgb(100%, 90.081787%, 42.58728%)" offset="0.605469"/><stop stop-opacity="1" stop-color="rgb(100%, 90.176392%, 42.851257%)" offset="0.609375"/><stop stop-opacity="1" stop-color="rgb(100%, 90.270996%, 43.113708%)" offset="0.613281"/><stop stop-opacity="1" stop-color="rgb(100%, 90.365601%, 43.377686%)" offset="0.617188"/><stop stop-opacity="1" stop-color="rgb(100%, 90.458679%, 43.641663%)" offset="0.621094"/><stop stop-opacity="1" stop-color="rgb(100%, 90.553284%, 43.90564%)" offset="0.625"/><stop stop-opacity="1" stop-color="rgb(100%, 90.646362%, 44.168091%)" offset="0.628906"/><stop stop-opacity="1" stop-color="rgb(100%, 90.740967%, 44.432068%)" offset="0.632812"/><stop stop-opacity="1" stop-color="rgb(100%, 90.834045%, 44.694519%)" offset="0.636719"/><stop stop-opacity="1" stop-color="rgb(100%, 90.92865%, 44.958496%)" offset="0.640625"/><stop stop-opacity="1" stop-color="rgb(100%, 90.953064%, 45.028687%)" offset="0.65625"/><stop stop-opacity="1" stop-color="rgb(100%, 90.979004%, 45.098877%)" offset="0.6875"/><stop stop-opacity="1" stop-color="rgb(100%, 90.979004%, 45.098877%)" offset="0.75"/><stop stop-opacity="1" stop-color="rgb(100%, 90.979004%, 45.098877%)" offset="1"/></linearGradient><clipPath id="c21110a61d"><path d="M 590.0625 186.671875 L 1404 186.671875 L 1404 496 L 590.0625 496 Z M 590.0625 186.671875 " clip-rule="nonzero"/></clipPath></defs><g clip-path="url(#2599268c9c)"><g clip-path="url(#d6444aae99)"><path fill="url(#6e38d55030)" d="M 1.078125 488.84375 L 1.078125 135.996094 L 353.1875 135.996094 L 353.1875 488.84375 Z M 1.078125 488.84375 " fill-rule="nonzero"/></g></g><g clip-path="url(#95ff55ab21)"><g clip-path="url(#90fc863aec)"><path fill="url(#50b344c736)" d="M 125.769531 617.027344 L 125.769531 257.738281 L 478.84375 257.738281 L 478.84375 617.027344 Z M 125.769531 617.027344 " fill-rule="nonzero"/></g></g><g clip-path="url(#c21110a61d)"><path fill="#646464" d="M 688.890625 346.960938 C 688.890625 307.175781 677.542969 286.75 654.847656 285.628906 C 645.8125 285.203125 637 286.640625 628.421875 289.972656 C 621.574219 292.421875 616.96875 294.847656 614.542969 297.296875 L 614.542969 392.261719 C 629.0625 401.371094 641.953125 405.605469 653.195312 404.9375 C 676.980469 403.363281 688.890625 384.058594 688.890625 346.960938 Z M 716.886719 348.609375 C 716.886719 368.824219 712.144531 385.601562 702.609375 398.941406 C 691.980469 414.042969 677.25 421.816406 658.414062 422.246094 C 644.21875 422.695312 629.589844 418.25 614.539062 408.929688 L 614.539062 495.238281 L 590.191406 486.558594 L 590.191406 294.976562 C 594.1875 290.078125 599.332031 285.871094 605.5625 282.300781 C 620.054688 273.859375 637.660156 269.519531 658.386719 269.304688 L 658.734375 269.652344 C 677.675781 269.414062 692.269531 277.1875 702.527344 292.953125 C 712.089844 307.414062 716.886719 325.949219 716.886719 348.609375 Z M 865.691406 405.253906 C 865.691406 432.367188 862.972656 451.140625 857.539062 461.578125 C 852.078125 472.015625 841.6875 480.351562 826.347656 486.558594 C 813.90625 491.457031 800.449219 494.121094 786.015625 494.574219 L 781.988281 479.238281 C 796.667969 477.242188 807.003906 475.242188 812.996094 473.246094 C 824.800781 469.25 832.898438 463.128906 837.347656 454.921875 C 840.914062 448.242188 842.671875 435.484375 842.671875 416.605469 L 842.671875 410.265625 C 826.023438 417.832031 808.574219 421.585938 790.332031 421.585938 C 778.339844 421.585938 767.765625 417.832031 758.65625 410.265625 C 748.425781 402.039062 743.3125 391.601562 743.3125 378.949219 L 743.3125 277.640625 L 767.660156 269.304688 L 767.660156 371.273438 C 767.660156 382.164062 771.175781 390.554688 778.207031 396.4375 C 785.238281 402.324219 794.351562 405.148438 805.511719 404.933594 C 816.671875 404.691406 828.632812 400.378906 841.339844 391.9375 L 841.339844 272.976562 L 865.6875 272.976562 L 865.6875 405.253906 Z M 960.734375 420.914062 C 958.066406 421.140625 955.394531 421.253906 952.714844 421.257812 C 938.945312 421.257812 928.207031 417.984375 920.539062 411.40625 C 912.890625 404.828125 909.054688 395.75 909.054688 384.164062 L 909.054688 288.292969 L 892.378906 288.292969 L 892.378906 272.980469 L 909.054688 272.980469 L 909.054688 232.316406 L 933.378906 223.660156 L 933.378906 272.980469 L 960.734375 272.980469 L 960.734375 288.292969 L 933.378906 288.292969 L 933.378906 383.496094 C 933.378906 392.632812 935.824219 399.101562 940.726562 402.886719 C 944.933594 406 951.621094 407.785156 960.730469 408.238281 L 960.730469 420.914062 Z M 1108.152344 418.917969 L 1083.804688 418.917969 L 1083.804688 324.964844 C 1083.804688 315.402344 1081.570312 307.175781 1077.121094 300.304688 C 1071.980469 292.527344 1064.839844 288.640625 1055.675781 288.640625 C 1044.511719 288.640625 1030.554688 294.523438 1013.800781 306.292969 L 1013.800781 418.917969 L 989.453125 418.917969 L 989.453125 194.339844 L 1013.800781 186.671875 L 1013.800781 288.957031 C 1029.355469 277.640625 1046.351562 271.96875 1064.8125 271.96875 C 1077.707031 271.96875 1088.148438 276.308594 1096.140625 284.964844 C 1104.160156 293.617188 1108.15625 304.402344 1108.15625 317.292969 L 1108.15625 418.917969 Z M 1237.5625 343.125 C 1237.5625 327.839844 1234.660156 315.21875 1228.878906 305.230469 C 1222.003906 293.0625 1211.324219 286.640625 1196.886719 285.976562 C 1170.191406 287.523438 1156.871094 306.640625 1156.871094 343.289062 C 1156.871094 360.089844 1159.644531 374.125 1165.238281 385.390625 C 1172.375 399.746094 1183.085938 406.828125 1197.367188 406.589844 C 1224.164062 406.375 1237.5625 385.230469 1237.5625 343.125 Z M 1264.226562 343.285156 C 1264.226562 365.042969 1258.660156 383.152344 1247.550781 397.609375 C 1235.320312 413.804688 1218.4375 421.925781 1196.886719 421.925781 C 1175.519531 421.925781 1158.871094 413.800781 1146.859375 397.609375 C 1135.960938 383.152344 1130.527344 365.042969 1130.527344 343.285156 C 1130.527344 322.835938 1136.414062 305.628906 1148.1875 291.621094 C 1160.628906 276.761719 1176.984375 269.304688 1197.203125 269.304688 C 1217.421875 269.304688 1233.882812 276.761719 1246.566406 291.621094 C 1258.339844 305.628906 1264.226562 322.835938 1264.226562 343.285156 Z M 1403.8125 418.917969 L 1379.464844 418.917969 L 1379.464844 319.636719 C 1379.464844 308.746094 1376.191406 300.25 1369.636719 294.125 C 1363.082031 288.027344 1354.34375 285.070312 1343.449219 285.308594 C 1331.890625 285.523438 1320.886719 289.304688 1310.445312 296.628906 L 1310.445312 418.917969 L 1286.097656 418.917969 L 1286.097656 293.621094 C 1300.109375 283.421875 1313.003906 276.761719 1324.777344 273.648438 C 1335.882812 270.746094 1345.6875 269.304688 1354.132812 269.304688 C 1359.910156 269.304688 1365.347656 269.863281 1370.460938 270.984375 C 1380.023438 273.195312 1387.804688 277.296875 1393.796875 283.3125 C 1400.484375 289.972656 1403.8125 297.957031 1403.8125 307.308594 Z M 1403.8125 418.917969 " fill-opacity="1" fill-rule="nonzero"/></g><path fill="#646464" d="M 1451.226562 251.28125 L 1455.496094 251.28125 L 1455.496094 224.515625 L 1465.605469 224.515625 L 1465.605469 221.324219 L 1441.113281 221.324219 L 1441.113281 224.515625 L 1451.222656 224.515625 L 1451.222656 251.28125 M 1469.390625 251.28125 L 1473.039062 251.28125 L 1473.039062 226.835938 L 1480.953125 251.277344 L 1485.011719 251.277344 L 1493.261719 226.917969 L 1493.261719 251.28125 L 1497.242188 251.28125 L 1497.242188 221.328125 L 1491.976562 221.328125 L 1482.960938 246.988281 L 1475.277344 221.328125 L 1469.390625 221.328125 L 1469.390625 251.28125 " fill-opacity="1" fill-rule="nonzero"/></svg>